<?xml version="1.0" encoding="UTF-8"?>
<svg width="50px" height="50px" viewBox="0 0 50 50" version="1.1" xmlns="http://www.w3.org/2000/svg" xmlns:xlink="http://www.w3.org/1999/xlink">
    <!-- Generator: Sketch 45.1 (43504) - http://www.bohemiancoding.com/sketch -->
    <title>hangouts</title>
    <desc>Created with Sketch.</desc>
    <defs></defs>
    <g id="Page-1" stroke="none" stroke-width="1" fill="none" fill-rule="evenodd">
        <g id="Иконки" transform="translate(-339.000000, -1715.000000)" fill-rule="nonzero">
            <g id="hangouts" transform="translate(339.000000, 1715.000000)">
                <rect id="Rectangle-path" fill="#82B750" x="0" y="0" width="50" height="50" rx="10"></rect>
                <path d="M37.7979737,21.5825681 C37.3379295,19.1001467 36.2396214,16.9318589 34.5046965,15.0814541 C33.7750987,14.3029551 32.9490563,13.6187912 32.0461861,13.04521 C30.3591927,11.9719068 28.5214867,11.3142966 26.5286208,11.0813454 C26.2856687,11.0528175 26.0392576,11.0565669 25.7997645,11 L24.0803226,11 C24.06171,11.0428734 24.0218494,11.0272238 23.9902244,11.0301581 C23.5474752,11.0687931 23.1068671,11.1186763 22.6698828,11.2006738 C19.4765865,11.7992719 16.8541864,13.3510297 14.8244247,15.8575776 C13.154891,17.9189263 12.2354614,20.2836494 12.0368172,22.9202847 C11.9400088,24.1913913 12.0343746,25.4696797 12.3168298,26.713362 C12.5255347,27.6417726 12.8430555,28.5428907 13.2629429,29.3984133 C13.3000034,29.4714449 13.3365697,29.5444764 13.374289,29.617508 C14.0675672,30.9685921 14.9593249,32.1726349 16.0769045,33.2125197 C16.6652603,33.7599304 17.2941356,34.2551758 17.9748956,34.6830951 C20.0608245,35.993425 22.3378209,36.6805412 24.8114848,36.7111884 C24.9633505,36.7133076 25.0046935,36.7503124 25.0037052,36.9038744 C24.9967873,38.2142042 24.9997521,39.5246971 25.0000815,40.8351899 C25.0002463,40.8860512 25.0041994,40.9367494 25.0071642,41 C25.0499897,40.9827202 25.0768379,40.9729392 25.1026979,40.9608759 C27.5893743,39.8045971 29.8726297,38.3434766 31.9081564,36.5119817 C32.3128325,36.1472834 32.7016335,35.7656955 33.0735028,35.3682552 C33.23311,35.1982285 33.3913994,35.0252676 33.551336,34.855404 C33.7984059,34.5939249 34.0122038,34.3017986 34.2451083,34.0264631 C34.5140851,33.7089062 34.7555548,33.3712982 34.9937302,33.0315709 C35.5203185,32.2807151 35.9905749,31.4974189 36.3858868,30.6699451 C36.5858487,30.2516438 36.7762573,29.8300821 36.9447589,29.3985763 C36.9503592,29.3904255 36.957936,29.3832527 36.9615597,29.3744498 C37.4207803,28.1929033 37.7151229,26.9702766 37.8717653,25.7158615 C37.9264501,25.2789763 37.9618634,24.8393197 37.9842644,24.3999891 C38.0324343,23.4568791 37.9699197,22.5114221 37.7979737,21.5825681 L37.7979737,21.5825681 Z M21.054375,29.4698147 C20.8311885,29.5298049 20.6035548,29.5642015 20.3760857,29.5971309 C20.2001719,29.6225615 20.0855315,29.5258925 20.0199756,29.3689072 L20.0217875,27.9167527 C20.0303526,27.7742759 19.9723735,27.6215291 20.0876728,27.4958431 C20.1448283,27.4335706 20.2095606,27.3908602 20.2970234,27.369342 C20.5531525,27.3054393 20.8127406,27.254415 21.0459746,27.1166658 C21.4755468,26.8628484 21.7428765,26.4965495 21.8614701,26.019073 C21.8799179,25.9439222 21.8975423,25.8682823 21.9151666,25.7928055 C20.883732,25.7908493 19.8526269,25.7890561 18.8211924,25.787752 C18.7319178,25.787589 18.6439609,25.7844917 18.5569923,25.7606912 C18.2941099,25.6886377 18.0928303,25.4512851 18.0925009,25.1827963 C18.0905243,23.6393523 18.0936538,22.0957453 18.0948068,20.5523013 C18.0732294,20.3056567 18.0949716,20.0744987 18.3044868,19.8982775 C18.4183037,19.8029126 18.5433211,19.7452046 18.6928808,19.7452046 C20.2093959,19.7448786 21.725911,19.7460197 23.2424262,19.7443895 C23.6438324,19.7437374 23.9760591,20.14427 23.8475827,20.5358365 C23.8785488,20.6098462 23.8727839,20.6880943 23.8727839,20.7653643 C23.8731133,22.4472097 23.8826667,24.1297071 23.8696543,25.8115525 C23.8612539,26.9277292 23.4221284,27.8663805 22.5965854,28.6275064 C22.5534305,28.6671195 22.5117581,28.7083628 22.4695915,28.748791 C22.0419958,29.0731946 21.5791515,29.3292941 21.054375,29.4698147 L21.054375,29.4698147 Z M29.4442105,29.3625496 C29.4252684,29.3676031 29.405997,29.3729827 29.3863961,29.3785252 L29.3536182,29.3969462 C29.0600991,29.4791067 28.7639446,29.5472477 28.4612016,29.5909363 C28.2302736,29.6245177 28.0556775,29.4954084 28.0528774,29.2655545 C28.0505714,29.1044938 28.0494184,28.9431071 28.0481007,28.7818834 L28.0565011,27.9159376 C28.0551834,27.852198 28.0528774,27.7889475 28.0530421,27.7255339 C28.0533716,27.5038309 28.1395166,27.4102592 28.4180467,27.3473347 C28.771192,27.2672934 29.1034187,27.1544857 29.3783252,26.9019725 C29.7082458,26.5987611 29.874771,26.2202358 29.9505391,25.7924795 L27.0924343,25.7870999 C26.9888296,25.7869369 26.8850603,25.7884041 26.7812909,25.7866109 C26.3922382,25.7802532 26.1258968,25.5140466 26.1258968,25.1268815 C26.1263909,23.6025105 26.1285322,22.0783025 26.1295205,20.5537684 C26.1295205,20.5390969 26.1278733,20.5244254 26.1268851,20.5097538 C26.0969073,20.2244743 26.179758,19.990708 26.4358872,19.8322556 C26.535374,19.7703092 26.6435906,19.7448786 26.7580663,19.7448786 C28.264534,19.7440635 29.7708369,19.7453676 31.2774692,19.7435744 C31.6787108,19.7430854 32.0107727,20.1436179 31.8824611,20.5351845 C31.9130978,20.6091942 31.9074975,20.6872792 31.9074975,20.7645493 C31.9074975,22.4493289 31.9084858,24.1341086 31.9070034,25.8190512 C31.9056857,27.3241863 30.9526547,28.7326523 29.5479798,29.3108732 C29.5125665,29.3258708 29.4788003,29.3452698 29.4442105,29.3625496 L29.4442105,29.3625496 Z" id="Shape" fill="#FFFFFF"></path>
            </g>
        </g>
    </g>
</svg>