<?xml version="1.0" encoding="UTF-8"?>
<svg width="50px" height="50px" viewBox="0 0 50 50" version="1.1" xmlns="http://www.w3.org/2000/svg" xmlns:xlink="http://www.w3.org/1999/xlink">
    <!-- Generator: Sketch 45.1 (43504) - http://www.bohemiancoding.com/sketch -->
    <title>viber</title>
    <desc>Created with Sketch.</desc>
    <defs>
        <rect id="path-1" x="0" y="0" width="50" height="50" rx="12"></rect>
    </defs>
    <g id="Page-1" stroke="none" stroke-width="1" fill="none" fill-rule="evenodd">
        <g id="Иконки" transform="translate(-548.000000, -1715.000000)">
            <g id="viber" transform="translate(548.000000, 1715.000000)">
                <mask id="mask-2" fill="white">
                    <use xlink:href="#path-1"></use>
                </mask>
                <use id="Mask" fill="#7B519D" xlink:href="#path-1"></use>
                <path d="M35.4736141,32.7870834 C34.6489296,32.1157943 33.767657,31.5132748 32.9001766,30.897767 C31.1700834,29.6691439 29.5876465,29.5736459 28.2966685,31.5503256 C27.571706,32.6600716 26.5568397,32.7086752 25.4956618,32.2218197 C22.5702562,30.8806088 20.3112643,28.8141049 18.9880371,25.8076595 C18.4026856,24.4775228 18.4103929,23.2849935 19.7799317,22.3442318 C20.5050293,21.8467123 21.2355356,21.2580013 21.1771222,20.1708822 C21.1008602,18.7533822 17.6969915,14.0162826 16.3528058,13.5163021 C15.7965933,13.3093783 15.2426796,13.3228451 14.6767992,13.51514 C11.5249061,14.5868783 10.2193923,17.2078451 11.4696703,20.311224 C15.1996132,29.5699545 21.7636907,36.0155599 30.799523,39.949642 C31.3146973,40.1736556 31.8870005,40.2632064 32.1767691,40.343597 C34.2339506,40.364515 36.6438439,38.3604916 37.3398025,36.3716439 C38.0098671,34.458265 36.5937463,33.6987924 35.4736141,32.7870834 Z M25.3421913,14.4655404 C31.9479831,15.49264 34.9944749,18.6686166 35.8356558,25.3958627 C35.9136757,26.0172494 35.6847544,26.9522689 36.5615648,26.9694955 C37.477926,26.9872006 37.2571177,26.0659896 37.264825,25.4439877 C37.342304,19.1081674 31.8785495,13.2345931 25.5331844,13.0180306 C25.0544509,13.0876888 24.063856,12.6842318 24.0020621,13.7691634 C23.9608887,14.5006088 24.7949031,14.380433 25.3421913,14.4655404 Z" id="Shape" fill="#FFFFFF" mask="url(#mask-2)"></path>
                <path d="M26.6343187,16.3100814 C25.9989371,16.2326986 25.1601225,15.9300033 25.0116549,16.8214095 C24.8566294,17.7570443 25.7915152,17.6620248 26.3922138,17.7979916 C30.4720966,18.7199545 31.8926796,20.2213998 32.5644344,24.313392 C32.6625338,24.9099642 32.4676195,25.8384896 33.4703163,25.6846127 C34.2133977,25.5701791 33.9449933,24.7742709 34.0071252,24.3093588 C34.0400504,20.3807455 30.7106859,16.8050033 26.6343187,16.3100814 Z" id="Shape" fill="#FFFFFF" mask="url(#mask-2)"></path>
                <path d="M27.0089356,19.5225619 C26.5848295,19.5331576 26.168566,19.5795736 26.0126615,20.0378549 C25.7785344,20.7228158 26.27106,20.8861263 26.7723746,20.9675424 C28.4460149,21.2392025 29.3268142,22.2370443 29.4940092,23.9245638 C29.5391715,24.3825716 29.8266414,24.7536947 30.2642015,24.7014681 C30.8705792,24.6283236 30.9254094,24.0826107 30.9068172,23.5643783 C30.9367676,21.6684994 28.8174542,19.4771713 27.0089356,19.5225619 L27.0089356,19.5225619 Z" id="Shape" fill="#FFFFFF" mask="url(#mask-2)"></path>
            </g>
        </g>
    </g>
</svg>