<?xml version="1.0" encoding="UTF-8"?>
<svg width="50px" height="50px" viewBox="0 0 50 50" version="1.1" xmlns="http://www.w3.org/2000/svg" xmlns:xlink="http://www.w3.org/1999/xlink">
    <!-- Generator: Sketch 45.1 (43504) - http://www.bohemiancoding.com/sketch -->
    <title>vk_mobile</title>
    <desc>Created with Sketch.</desc>
    <defs>
        <rect id="path-1" x="0" y="0" width="50" height="50" rx="12"></rect>
    </defs>
    <g id="Page-1" stroke="none" stroke-width="1" fill="none" fill-rule="evenodd">
        <g id="Иконки" transform="translate(-757.000000, -1715.000000)">
            <g id="vk_mobile" transform="translate(757.000000, 1715.000000)">
                <mask id="mask-2" fill="white">
                    <use xlink:href="#path-1"></use>
                </mask>
                <use id="Mask" fill="#6896C7" xlink:href="#path-1"></use>
                <path d="M23.7241657,31.6344614 L25.1564293,31.6344614 C25.1564293,31.6344614 25.5889604,31.5867122 25.81012,31.3483886 C26.0133911,31.1293337 26.0068939,30.7182678 26.0068939,30.7182678 C26.0068939,30.7182678 25.9788798,28.7934247 26.8706904,28.5099718 C27.7501817,28.2305754 28.8792685,30.3702478 30.0759436,31.1930557 C30.9809176,31.8154859 31.6686134,31.6792527 31.6686134,31.6792527 L34.8687194,31.6344614 C34.8687194,31.6344614 36.5426469,31.5310188 35.7488856,30.2128021 C35.6839132,30.105134 35.286484,29.2377038 33.3694581,27.4555167 C31.3627364,25.59017 31.6317394,25.891962 34.0488003,22.665382 C35.5208069,20.7003957 36.1091876,19.5008337 35.9253239,18.9870858 C35.7501513,18.4975929 34.667389,18.6268961 34.667389,18.6268961 L31.0643692,18.6492072 C31.0643692,18.6492072 30.7970539,18.6127826 30.5990987,18.7314373 C30.4054469,18.8474721 30.2811554,19.1185863 30.2811554,19.1185863 C30.2811554,19.1185863 29.7106632,20.63904 28.9504007,21.9323257 C27.3460022,24.6608771 26.7043777,24.8053079 26.4421252,24.635608 C25.8319744,24.2406839 25.9844488,23.0494041 25.9844488,22.2028483 C25.9844488,19.5584708 26.3849156,18.4559285 25.2046102,18.1705318 C24.8130033,18.0758785 24.5245086,18.0132551 23.5228353,18.0030292 C22.2371395,17.9899298 21.14923,18.0070012 20.5330883,18.3093003 C20.123171,18.5103542 19.8069153,18.9582672 19.9996389,18.9840434 C20.2378432,19.0158199 20.7770305,19.1298264 21.0629094,19.5194263 C21.43224,20.0226947 21.4193299,21.1524498 21.4193299,21.1524498 C21.4193299,21.1524498 21.6315452,24.2652768 20.9238514,24.6518343 C20.4382453,24.9170326 19.771982,24.3756494 18.3415747,21.9001267 C17.60882,20.63211 17.0553726,19.2303111 17.0553726,19.2303111 C17.0553726,19.2303111 16.9488008,18.9684087 16.7584399,18.8282034 C16.5275766,18.6583345 16.2049924,18.6045004 16.2049924,18.6045004 L12.7810266,18.6268961 C12.7810266,18.6268961 12.2671533,18.6412631 12.0783112,18.8651351 C11.9103109,19.0644142 12.0648948,19.4760717 12.0648948,19.4760717 C12.0648948,19.4760717 14.7453053,25.7571655 17.7806174,28.9224744 C20.5640557,31.8249512 23.7241657,31.6344614 23.7241657,31.6344614" id="Fill-4-Copy-3" fill="#FFFFFF" mask="url(#mask-2)"></path>
            </g>
        </g>
    </g>
</svg>