<?xml version="1.0" encoding="UTF-8"?>
<svg width="141px" height="169px" viewBox="0 0 141 169" version="1.1" xmlns="http://www.w3.org/2000/svg" xmlns:xlink="http://www.w3.org/1999/xlink">
    <!-- Generator: Sketch 46.2 (44496) - http://www.bohemiancoding.com/sketch -->
    <title>Group 31</title>
    <desc>Created with Sketch.</desc>
    <defs></defs>
    <g id="Page-1" stroke="none" stroke-width="1" fill="none" fill-rule="evenodd">
        <g id="Мой-профиль.-Пустой-Copy" transform="translate(-454.000000, -138.000000)">
            <g id="Group-31" transform="translate(454.000000, 138.000000)">
                <path d="M51.9224721,2 C44.3623159,2 38.2065885,8.07729986 38.1096541,15.6368346 L37.8871416,32.9897313 C37.8870523,32.9974981 37.8870523,32.9974981 37.8870041,33.0052653 C37.8817502,34.0841332 38.7520868,34.9629885 39.8309539,34.9682436 C49.846503,35.0170181 59.5025048,35.0096075 68.798927,34.946017 C78.1976692,34.8817266 88.3066072,34.874763 99.1258551,34.9251167 L99.1349467,34.9251379 C100.213827,34.9251379 101.088434,34.0505318 101.088435,32.9716525 L101.088435,15.8139535 C101.088435,8.18471764 94.9037174,2 87.2744816,2 L51.9224721,2 Z" id="Rectangle-11" stroke="#FFFFFF" stroke-width="4"></path>
                <rect id="Rectangle-12" fill="#FFFFFF" x="68" y="8" width="4" height="20"></rect>
                <rect id="Rectangle-12-Copy" fill="#FFFFFF" transform="translate(69.883721, 18.116279) rotate(-90.000000) translate(-69.883721, -18.116279) " x="67.8837209" y="8.11627907" width="4" height="20"></rect>
                <g id="Group-23" transform="translate(0.000000, 5.930233)" stroke="#FFFFFF">
                    <g id="Group-22">
                        <g id="user" stroke-width="4">
                            <path d="M55.5552353,88.1670101 C54.8095944,88.3220817 50.6139184,89.1939235 49.3994463,89.448587 C47.1384123,89.9227046 45.3494535,90.3066451 43.6953794,90.675414 C28.7482324,94.007818 21.7319887,97.060664 16.2133742,103.367065 C10.0892563,110.365406 5.97659542,121.819918 2.0968082,142.726852 C1.22004534,147.451447 8.47252774,152.145475 22.6387447,155.596181 C36.0250665,158.856913 54.4500747,160.71383 72.846026,160.780635 C99.9459444,160.879049 121.098009,156.922602 136.783093,147.968616 C137.164853,147.750685 137.724359,146.894595 138.295521,145.395254 C135.520311,122.53841 130.716601,109.669304 122.426606,101.973701 C115.224125,95.2876368 106.391683,92.3127405 85.285262,88.3632069 C84.6318657,88.2409403 83.053098,90.2593135 79.6235124,96.0654344 C75.4096656,103.199271 73.3339546,105.731866 69.8922414,105.731866 C67.8958513,105.731866 66.2216152,104.455985 64.5123662,102.189657 C63.3788336,100.686684 62.3962052,99.0303922 60.6884902,95.9011809 C58.587911,92.0520867 58.0362301,91.089566 57.127794,89.8252512 C56.6008253,89.0918431 56.1418707,88.582935 55.7747203,88.3073816 C55.6813808,88.2373284 55.6071431,88.1920096 55.5552353,88.1670101 Z" id="Rectangle"></path>
                        </g>
                        <g id="Group-11" transform="translate(93.256076, 101.248417) rotate(-21.000000) translate(-93.256076, -101.248417) translate(84.256076, 73.748417)" stroke-width="3.95348837">
                            <path d="M7.83944141,0.295889709 C12.6747071,4.34252292 15.8480877,8.70364748 17.3595832,13.3792634 C18.8710788,18.0548793 16.4598917,27.1266645 10.1260219,40.5946192" id="Path-14"></path>
                            <ellipse id="Oval-3" cx="7.50942141" cy="47.5005108" rx="6.91325431" ry="6.91860465"></ellipse>
                        </g>
                        <path d="M101,79.0697674 C101,77.3815079 101,70.7148412 101,59.0697674 C101,41.6021568 87.3463439,23.0697674 69.8922414,23.0697674 C52.4381389,23.0697674 38,41.0697674 38,59.0697674 C38,71.0697674 38,77.0697674 38,77.0697674" id="Oval-14" stroke-width="4" transform="translate(69.500000, 51.069767) scale(1, -1) translate(-69.500000, -51.069767) "></path>
                        <path d="M60.6237367,77.7783825 L56.9416754,89.1971158" id="Path-22" stroke-width="4"></path>
                        <path d="M82.7870662,77.43642 L79.3337956,90.2529785" id="Path-22-Copy" stroke-width="4" transform="translate(81.060431, 83.844699) scale(-1, 1) translate(-81.060431, -83.844699) "></path>
                        <g id="Group-8" transform="translate(48.549280, 108.734750) rotate(40.000000) translate(-48.549280, -108.734750) translate(29.549280, 77.234750)" stroke-width="3.95348837" stroke-linecap="round">
                            <path d="M6.9250326,32.5627829 L7.36116097,42.3411752 L7.36116097,42.3411752 C7.5226146,45.9611115 9.09758799,49.3732808 11.7476738,51.8445258 L20.4108683,59.9230854 L20.4108683,59.9230854 C22.7031625,62.0606843 26.2344414,62.1382591 28.6183959,60.1033875 L28.6183959,60.1033875" id="Path-18" transform="translate(17.771714, 47.071095) rotate(7.000000) translate(-17.771714, -47.071095) "></path>
                            <path d="M6.74548768,0.847004623 C4.28143969,2.25937916 2.18790042,5.77266197 0.464869885,11.3868531 C-1.25816065,17.0010442 1.94838342,23.9737673 10.0845021,32.3050225 L15.5241335,32.0432628 L15.5241335,32.0432628 C19.842632,31.8354529 24.0100502,33.6581026 26.7891396,36.9700923 L36.349187,48.3633132 L36.349187,48.3633132 C37.5674874,49.815227 37.5839741,51.9274819 36.3884859,53.398236 L36.0443369,53.8216266" id="Path-10"></path>
                        </g>
                        <path d="M66.5446204,30.0726919 C66.8648682,33.7583914 73.2498212,39.7591146 83.6699799,40.7838654 C88.9753583,41.3056128 95.0565601,40.7678249 101.913585,39.1705018" id="Path-25" stroke-width="4"></path>
                        <path d="M39.2780233,39.7468094 C44.3709957,40.0785051 50.7495976,39.9407373 55.2187783,37.2613119 C58.180292,35.4857841 60.4070027,32.8449404 61.8989104,29.3387809" id="Path-25-Copy" stroke-width="4"></path>
                    </g>
                </g>
            </g>
        </g>
    </g>
</svg>