<?xml version="1.0" encoding="UTF-8"?>
<svg width="50px" height="50px" viewBox="0 0 50 50" version="1.1" xmlns="http://www.w3.org/2000/svg" xmlns:xlink="http://www.w3.org/1999/xlink">
    <!-- Generator: Sketch 45.1 (43504) - http://www.bohemiancoding.com/sketch -->
    <title>fb_mobile</title>
    <desc>Created with Sketch.</desc>
    <defs>
        <rect id="path-1" x="0" y="0" width="50" height="50" rx="12"></rect>
    </defs>
    <g id="Page-1" stroke="none" stroke-width="1" fill="none" fill-rule="evenodd">
        <g id="Иконки" transform="translate(-687.000000, -1715.000000)">
            <g id="fb_mobile" transform="translate(687.000000, 1715.000000)">
                <mask id="mask-2" fill="white">
                    <use xlink:href="#path-1"></use>
                </mask>
                <use id="Mask" fill="#486194" xlink:href="#path-1"></use>
                <path d="M31.4674901,13.0049936 L28.3600906,13 C24.8690338,13 22.6129596,15.3182797 22.6129596,18.9064324 L22.6129596,21.6296932 L19.4886083,21.6296932 C19.2186273,21.6296932 19,21.8489123 19,22.1193159 L19,26.0650105 C19,26.335414 19.2188766,26.5543834 19.4886083,26.5543834 L22.6129596,26.5543834 L22.6129596,36.510627 C22.6129596,36.7810306 22.8315869,37 23.1015679,37 L27.1779575,37 C27.4479386,37 27.6665659,36.7807809 27.6665659,36.510627 L27.6665659,26.5543834 L31.3196611,26.5543834 C31.5896422,26.5543834 31.8082695,26.335414 31.8082695,26.0650105 L31.8097652,22.1193159 C31.8097652,21.9894822 31.7581622,21.8651415 31.6666728,21.7732593 C31.5751834,21.681377 31.4505384,21.6296932 31.3209076,21.6296932 L27.6665659,21.6296932 L27.6665659,19.321151 C27.6665659,18.2115727 27.930564,17.6482944 29.3737036,17.6482944 L31.4669915,17.6475453 C31.7367233,17.6475453 31.9553506,17.4283262 31.9553506,17.1581723 L31.9553506,13.4943666 C31.9553506,13.2244624 31.7369726,13.005493 31.4674901,13.0049936 L31.4674901,13.0049936 Z" id="Shape" fill="#FFFFFF" mask="url(#mask-2)"></path>
            </g>
        </g>
    </g>
</svg>