<?xml version="1.0" encoding="UTF-8"?>
<svg width="40px" height="40px" viewBox="0 0 40 40" version="1.1" xmlns="http://www.w3.org/2000/svg" xmlns:xlink="http://www.w3.org/1999/xlink">
    <!-- Generator: Sketch 46.2 (44496) - http://www.bohemiancoding.com/sketch -->
    <title>Group 4</title>
    <desc>Created with Sketch.</desc>
    <defs></defs>
    <g id="Page-1" stroke="none" stroke-width="1" fill="none" fill-rule="evenodd">
        <g id="Авторизация" transform="translate(-331.000000, -57.000000)" fill-rule="nonzero" fill="#FFFFFF">
            <g id="Group-4" transform="translate(331.000000, 57.000000)">
                <path d="M4.05961588,10.2393367 L4.05961588,29.2717833 C4.05961588,32.8663014 6.98091028,35.7874837 10.5799004,35.7874837 L29.6208678,35.7874837 C33.2244564,35.7874837 36.1411524,32.8713825 36.1411524,29.2717833 L36.1411524,10.2393367 C36.1411524,6.64481864 33.219858,3.72363636 29.6208678,3.72363636 L10.5799004,3.72363636 C6.9763119,3.72363636 4.05961588,6.63973747 4.05961588,10.2393367 Z M0.335979513,10.2393367 C0.335979513,4.58430721 4.91872671,0 10.5799004,0 L29.6208678,0 C35.2784291,0 39.8647887,4.59037455 39.8647887,10.2393367 L39.8647887,29.2717833 C39.8647887,34.9268128 35.2820415,39.51112 29.6208678,39.51112 L10.5799004,39.51112 C4.92233913,39.51112 0.335979513,34.9207455 0.335979513,29.2717833 L0.335979513,10.2393367 Z M4.05961588,21.6124355 L0.335979513,21.6124355 L0.335979513,25.3360718 L4.05961588,25.3360718 L4.05961588,21.6124355 Z" id="Combined-Shape"></path>
                <path d="M17.9502838,9.66331058 C17.3954739,7.91480413 14.913252,7.93778757 14.3909141,9.69626758 L10.910435,21.4134971 L9.37096773,18.8611477 C9.03398932,18.3024566 8.42914591,17.9609253 7.77669654,17.9609253 L1.06161332,17.9609253 L1.06161332,21.6845616 L6.72540078,21.6845616 L9.900059,26.9479649 C10.7355481,28.3331585 12.8184605,28.0671982 13.2790763,26.5165092 L16.2343723,16.5673383 L19.9534174,28.2880644 C20.4453183,29.8383105 22.5488756,30.0568823 23.3489865,28.6408837 L27.2796608,21.6845616 L39.533085,21.6845616 L39.533085,17.9609253 L26.1931978,17.9609253 C25.5218618,17.9609253 24.9025142,18.3223452 24.5722523,18.9068271 L22.2098874,23.0876292 L17.9502838,9.66331058 Z" id="Line"></path>
            </g>
        </g>
    </g>
</svg>