<?xml version="1.0" encoding="UTF-8"?>
<svg width="50px" height="50px" viewBox="0 0 50 50" version="1.1" xmlns="http://www.w3.org/2000/svg" xmlns:xlink="http://www.w3.org/1999/xlink">
    <!-- Generator: Sketch 45.1 (43504) - http://www.bohemiancoding.com/sketch -->
    <title>g+</title>
    <desc>Created with Sketch.</desc>
    <defs></defs>
    <g id="Page-1" stroke="none" stroke-width="1" fill="none" fill-rule="evenodd">
        <g id="Иконки" transform="translate(-131.000000, -1715.000000)" fill-rule="nonzero">
            <g id="g+" transform="translate(131.000000, 1715.000000)">
                <rect id="Rectangle-path" fill="#DC4E41" x="0" y="0" width="50" height="50" rx="10"></rect>
                <path d="M20.6428571,24.1805556 L20.6428571,27.3472222 L25.9598214,27.3472222 C25.7455357,28.70625 24.3526786,31.3319444 20.6428571,31.3319444 C17.4419643,31.3319444 14.8303571,28.7194444 14.8303571,25.5 C14.8303571,22.2805556 17.4419643,19.6680556 20.6428571,19.6680556 C22.4642857,19.6680556 23.6830357,20.4333333 24.3794643,21.0930556 L26.9241071,18.6784722 C25.2901786,17.1743056 23.1741071,16.2638889 20.6428571,16.2638889 C15.4598214,16.2638889 11.2678571,20.39375 11.2678571,25.5 C11.2678571,30.60625 15.4598214,34.7361111 20.6428571,34.7361111 C26.0535714,34.7361111 29.6428571,30.9888889 29.6428571,25.7111111 C29.6428571,25.1041667 29.5758929,24.6423611 29.4955357,24.1805556 L20.6428571,24.1805556 Z" id="Shape" fill="#FFFFFF"></path>
                <polyline id="Shape" fill="#FFFFFF" points="40.7321429 24.1805556 38.0535714 24.1805556 38.0535714 21.5416667 35.375 21.5416667 35.375 24.1805556 32.6964286 24.1805556 32.6964286 26.8194444 35.375 26.8194444 35.375 29.4583333 38.0535714 29.4583333 38.0535714 26.8194444 40.7321429 26.8194444"></polyline>
            </g>
        </g>
    </g>
</svg>