<?xml version="1.0" encoding="UTF-8"?>
<svg width="30px" height="30px" viewBox="0 0 30 30" version="1.1" xmlns="http://www.w3.org/2000/svg" xmlns:xlink="http://www.w3.org/1999/xlink">
    <!-- Generator: Sketch 45.1 (43504) - http://www.bohemiancoding.com/sketch -->
    <title>publications</title>
    <desc>Created with Sketch.</desc>
    <defs></defs>
    <g id="Page-1" stroke="none" stroke-width="1" fill="none" fill-rule="evenodd">
        <g id="Иконки" transform="translate(-564.000000, -1379.000000)">
            <g id="publications" transform="translate(564.000000, 1379.000000)">
                <path d="M4.17439703,6.60714286 L6,6.60714286 L6,27.0012836 L6,27.0012836 C6,28.6581378 4.65685425,30.0012836 3,30.0012836 L3,30.0012836 L3,30.0012836 C1.34314575,30.0012836 5.80034743e-13,28.6581378 4.54747351e-13,27.0012836 L4.88498131e-13,10.7815399 L4.95603558e-13,10.7815399 C4.99416533e-13,8.47608407 1.86894121,6.60714286 4.17439703,6.60714286 Z" id="Rectangle-24-Copy" fill="#44B3FF"></path>
                <path d="M8.15531138,-1.96977851e-15 L25.825603,-1.96977851e-15 L25.825603,-1.77635684e-15 C28.1310588,-2.19987331e-15 30,1.86894121 30,4.17439703 L30,25.825603 L30,25.825603 C30,28.1310588 28.1310588,30 25.825603,30 L5.48248172,30 L2,30 L2,30 L2,30 C3.26249456,28.8386726 3.98091434,27.2016811 3.98091434,25.4862879 L3.98091434,4.17439703 L3.98091434,4.17439703 C3.98091434,1.86894121 5.84985556,-4.40370667e-14 8.15531138,-9.76996262e-14 Z" id="Rectangle-24" fill="#9DD7FF"></path>
                <rect id="Rectangle" fill="#FFFFFF" x="10" y="8" width="14" height="7"></rect>
                <rect id="Rectangle-Copy" fill="#FFFFFF" x="10" y="17" width="14" height="2"></rect>
                <rect id="Rectangle-Copy-3" fill="#FFFFFF" x="10" y="21" width="14" height="2"></rect>
            </g>
        </g>
    </g>
</svg>