<?xml version="1.0" encoding="UTF-8"?>
<svg width="50px" height="50px" viewBox="0 0 50 50" version="1.1" xmlns="http://www.w3.org/2000/svg" xmlns:xlink="http://www.w3.org/1999/xlink">
    <!-- Generator: Sketch 45.1 (43504) - http://www.bohemiancoding.com/sketch -->
    <title>skype</title>
    <desc>Created with Sketch.</desc>
    <defs></defs>
    <g id="Page-1" stroke="none" stroke-width="1" fill="none" fill-rule="evenodd">
        <g id="Иконки" transform="translate(-270.000000, -1715.000000)" fill-rule="nonzero">
            <g id="skype" transform="translate(270.000000, 1715.000000)">
                <rect id="Rectangle-path" fill="#00AFF0" x="0" y="0" width="50" height="50" rx="10"></rect>
                <path d="M29.53375,39.599375 C29.133125,39.46625 28.533125,39.333125 28.2,39.199375 C27.8,39 27.333125,39 25.866875,39.06625 C24.466875,39.1325 23.733125,39.06625 22.73375,38.9325 C17.4,38 13.133125,34.133125 11.6,28.8 C11.333125,27.8 11.266875,27.266875 11.266875,24.866875 C11.266875,22.26625 11.2,22.066875 10.866875,21 C8.93375,15.733125 12.866875,10.2 18.466875,10.2 C19.6,10.2 21,10.53375 21.8,10.933125 C22.33375,11.2 22.666875,11.26625 24.733125,11.26625 C26.6,11.26625 27.333125,11.333125 28.26625,11.6 C32.466875,12.666875 35.86625,15.4 37.66625,19.2 C38.799375,21.533125 39.2,23.93375 38.9325,26.66625 C38.799375,28.13375 38.799375,28.266875 39.1325,29.133125 C40.199375,32.266875 39.199375,35.86625 36.599375,38 C35.79875,38.666875 34.199375,39.4 33.199375,39.666875 C32.19875,39.866875 30.599375,39.866875 29.59875,39.6 L29.53375,39.6 L29.53375,39.599375 Z M27.733125,34.46625 C29.93375,34 31.86625,32.66625 32.6,31.066875 C33.533125,29.133125 33.26625,26.86625 32,25.46625 C30.933125,24.26625 29.333125,23.6 25.533125,22.666875 C22.999375,22.066875 22.399375,21.8 21.86625,21.2 C21.399375,20.66625 21.3325,20.266875 21.733125,19.666875 C22.133125,19 23.133125,18.6 24.46625,18.53375 C26.4,18.400625 27.26625,18.866875 28.399375,20.666875 C29.26625,22.000625 30.1325,22.33375 31.266875,21.8 C32.733125,21.066875 32.6,18.666875 30.999375,17.266875 C29.46625,16.000625 27.8,15.466875 24.999375,15.466875 C22.06625,15.466875 20.065625,16.066875 18.7325,17.4 C17.665625,18.466875 17.46625,19.066875 17.46625,20.733125 C17.46625,22.46625 17.66625,22.999375 18.799375,24 C19.999375,25.133125 20.999375,25.53375 24.59875,26.4 C27.1325,27 27.799375,27.333125 28.39875,28 C28.66625,28.33375 28.799375,28.6 28.799375,29.2 C28.799375,29.866875 28.7325,30 28.199375,30.53375 C27.399375,31.333125 26.199375,31.66625 24.66625,31.600625 C22.86625,31.466875 22.06625,30.93375 21.133125,29.066875 C20.46625,27.800625 19.933125,27.33375 19.06625,27.33375 C17.1325,27.33375 16.46625,28.93375 17.46625,31 C18.333125,32.800625 20.06625,34.000625 22.26625,34.466875 C23.599375,34.73375 26.533125,34.73375 27.8,34.466875 L27.733125,34.466875 L27.733125,34.46625 Z" id="Shape" fill="#FFFFFF"></path>
            </g>
        </g>
    </g>
</svg>