<?xml version="1.0" encoding="UTF-8"?>
<svg width="50px" height="50px" viewBox="0 0 50 50" version="1.1" xmlns="http://www.w3.org/2000/svg" xmlns:xlink="http://www.w3.org/1999/xlink">
    <!-- Generator: Sketch 45.1 (43504) - http://www.bohemiancoding.com/sketch -->
    <title>ok_mobile</title>
    <desc>Created with Sketch.</desc>
    <defs>
        <rect id="path-1" x="0" y="0" width="50" height="50" rx="12"></rect>
    </defs>
    <g id="Page-1" stroke="none" stroke-width="1" fill="none" fill-rule="evenodd">
        <g id="Иконки" transform="translate(-897.000000, -1715.000000)">
            <g id="ok_mobile" transform="translate(897.000000, 1715.000000)">
                <mask id="mask-2" fill="white">
                    <use xlink:href="#path-1"></use>
                </mask>
                <use id="Mask" fill="#FF9C43" xlink:href="#path-1"></use>
                <path d="M32.7752553,25.4265156 C32.4188928,24.7089694 31.4319314,24.1119614 30.1203245,25.1479602 C28.3475567,26.548354 25.5000334,26.548354 25.5000334,26.548354 C25.5000334,26.548354 22.6525101,26.548354 20.8796218,25.1479602 C19.5680148,24.1119614 18.5811741,24.7089694 18.2248116,25.4265156 C17.6036193,26.6775969 18.3054906,27.2823426 19.8894044,28.3016571 C21.2422553,29.1723846 23.1011289,29.4976077 24.301546,29.6192339 L23.2996307,30.6237985 C21.8881699,32.0387003 20.5256712,33.4046374 19.5804363,34.3523786 C19.0152007,34.9187988 19.0152007,35.8375239 19.5804363,36.4041858 L19.7509596,36.5751395 C20.3161952,37.1416806 21.2323664,37.1415597 21.7976019,36.5751395 L25.5167963,32.8465594 C26.9282571,34.2614612 28.2906352,35.6273983 29.2358701,36.5750186 C29.8009851,37.1415597 30.7173975,37.1415597 31.2825124,36.5750186 L31.4530358,36.4040649 C32.0182714,35.837403 32.0181508,34.9187988 31.4530358,34.3522577 L26.72867,29.6160904 C27.9300518,29.4920462 29.769027,29.1651305 31.1106625,28.3016571 C32.6944556,27.2823426 33.3963269,26.6775969 32.7752553,25.4265156 L32.7752553,25.4265156 Z M25.5000334,15.2143891 C27.2149149,15.2143891 28.6051507,16.6081334 28.6051507,18.3272216 C28.6051507,20.0464307 27.2149149,21.4400541 25.5000334,21.4400541 C23.785152,21.4400541 22.3950367,20.0464307 22.3950367,18.3272216 C22.3950367,16.6081334 23.785152,15.2143891 25.5000334,15.2143891 L25.5000334,15.2143891 Z M25.5000334,24.6544432 C28.9856325,24.6544432 31.8114485,21.8216169 31.8114485,18.3272216 C31.8114485,14.8328263 28.9856325,12 25.5000334,12 C22.0143138,12 19.1886184,14.8328263 19.1886184,18.3272216 C19.1886184,21.8216169 22.0143138,24.6544432 25.5000334,24.6544432 L25.5000334,24.6544432 Z" id="Fill-1" fill="#FFFFFF" mask="url(#mask-2)"></path>
            </g>
        </g>
    </g>
</svg>