<?xml version="1.0" encoding="UTF-8"?>
<svg width="50px" height="50px" viewBox="0 0 50 50" version="1.1" xmlns="http://www.w3.org/2000/svg" xmlns:xlink="http://www.w3.org/1999/xlink">
    <!-- Generator: Sketch 45.1 (43504) - http://www.bohemiancoding.com/sketch -->
    <title>twitter_mobile</title>
    <desc>Created with Sketch.</desc>
    <defs>
        <rect id="path-1" x="0" y="0" width="50" height="50" rx="12"></rect>
    </defs>
    <g id="Page-1" stroke="none" stroke-width="1" fill="none" fill-rule="evenodd">
        <g id="Иконки" transform="translate(-827.000000, -1715.000000)">
            <g id="twitter_mobile" transform="translate(827.000000, 1715.000000)">
                <mask id="mask-2" fill="white">
                    <use xlink:href="#path-1"></use>
                </mask>
                <use id="Mask" fill="#28C3FF" xlink:href="#path-1"></use>
                <path d="M36.9625,18.3315712 C36.0810725,18.7269943 35.1334279,18.9943502 34.1389382,19.1145801 C35.1540327,18.4991807 35.9334928,17.5248725 36.3006809,16.363718 C35.3503947,16.9335191 34.2983172,17.3472884 33.1786137,17.5701146 C32.2816886,16.6039998 31.004015,16 29.5902088,16 C26.8749543,16 24.673763,18.2263032 24.673763,20.9723561 C24.673763,21.3619013 24.717262,21.7414718 24.8012662,22.1053679 C20.7155284,21.898038 17.0929583,19.9184289 14.6684603,16.9100074 C14.2449173,17.6445681 14.0024146,18.4986464 14.0024146,19.4100787 C14.0024146,21.1349783 14.8702817,22.6568228 16.1895171,23.5486622 C15.3836406,23.5226569 14.6256658,23.29894 13.9629661,22.9268505 C13.9626139,22.9475122 13.9626139,22.968174 13.9626139,22.9891919 C13.9626139,25.3984228 15.6571384,27.4079558 17.9058792,27.8646516 C17.4936071,27.9784693 17.0593214,28.0393859 16.6109469,28.0393859 C16.29395,28.0393859 15.9859347,28.008037 15.6858443,27.9499704 C16.3115609,29.9253046 18.1268965,31.3630771 20.2782488,31.4031538 C18.5956997,32.736727 16.4760471,33.5316699 14.1725363,33.5316699 C13.775938,33.5316699 13.3846229,33.5081583 13,33.4618474 C15.1756554,34.8729022 17.7598845,35.6961659 20.5358968,35.6961659 C29.5787617,35.6961659 34.5237372,28.1193611 34.5237372,21.5487476 C34.5237372,21.3330461 34.5188061,21.1187695 34.5094723,20.9055617 C35.4699729,20.2043091 36.3034987,19.3285005 36.9625,18.3315712" id="twitter" fill="#FFFFFF" mask="url(#mask-2)"></path>
            </g>
        </g>
    </g>
</svg>