<?xml version="1.0" encoding="UTF-8"?>
<svg width="19px" height="25px" viewBox="0 0 19 25" version="1.1" xmlns="http://www.w3.org/2000/svg" xmlns:xlink="http://www.w3.org/1999/xlink">
    <!-- Generator: Sketch 45.1 (43504) - http://www.bohemiancoding.com/sketch -->
    <title>zip</title>
    <desc>Created with Sketch.</desc>
    <defs>
        <path d="M0,2.53471248 C0,1.13482943 1.13398414,0 2.52685342,0 L12.0537139,0 L19,7.02346004 L19,22.4815109 C19,23.872434 17.8683634,25 16.4769467,25 L2.5230533,25 C1.12960944,25 0,23.860839 0,22.4652875 L0,2.53471248 Z" id="path-1"></path>
        <path d="M12.0068309,-0.0110663184 L12.9775363,-0.0110663184 L18.9975942,6.00465393 L18.9975942,6.98795111 L14.5306569,6.98795111 C13.1367863,6.98795111 12.0068309,5.86343788 12.0068309,4.4611452 L12.0068309,-0.0110663184 Z" id="path-3"></path>
        <filter x="-78.7%" y="-50.0%" width="257.4%" height="257.2%" filterUnits="objectBoundingBox" id="filter-4">
            <feOffset dx="0" dy="2" in="SourceAlpha" result="shadowOffsetOuter1"></feOffset>
            <feGaussianBlur stdDeviation="1.5" in="shadowOffsetOuter1" result="shadowBlurOuter1"></feGaussianBlur>
            <feColorMatrix values="0 0 0 0 0.272108844   0 0 0 0 0.359183673   0 0 0 0 0.489795918  0 0 0 1 0" type="matrix" in="shadowBlurOuter1"></feColorMatrix>
        </filter>
    </defs>
    <g id="Page-1" stroke="none" stroke-width="1" fill="none" fill-rule="evenodd">
        <g id="Иконки" transform="translate(-469.000000, -1386.000000)">
            <g id="zip" transform="translate(469.000000, 1386.000000)">
                <g id="Triangle-+-Rectangle-2-Mask">
                    <mask id="mask-2" fill="white">
                        <use xlink:href="#path-1"></use>
                    </mask>
                    <use id="Mask" fill="#94A4BF" xlink:href="#path-1"></use>
                    <g id="Triangle" mask="url(#mask-2)">
                        <use fill="black" fill-opacity="1" filter="url(#filter-4)" xlink:href="#path-3"></use>
                        <use fill="#A9BEE5" fill-rule="evenodd" xlink:href="#path-3"></use>
                    </g>
                    <rect id="Rectangle-2" fill="#FFFFFF" mask="url(#mask-2)" x="3" y="3" width="4" height="4"></rect>
                </g>
                <path d="M4,20 L4,19.2985915 L6.35955056,15.4788732 C6.41947596,15.3774643 6.4818973,15.2816906 6.54681648,15.1915493 C6.61173566,15.101408 6.66167273,15.0931921 6.69662921,15.0537553 L6.74906367,14.9946004 C6.64918801,14.9889666 6.51685476,14.9946004 6.35205993,14.9946004 L4,14.9946004 L4,14 L7.96254682,14 L7.96254682,14.6929577 L5.60299625,18.5211268 C5.54307086,18.6225357 5.48064951,18.7183094 5.41573034,18.8084507 C5.35081116,18.898592 5.30087408,18.9087394 5.2659176,18.9481762 L5.21348315,19.0073311 C5.3133588,19.0129648 5.44569206,19.0073311 5.61048689,19.0073311 L8,19.0073311 L8,20 L4,20 Z M9,20 L9,14 L10,14 L10,20 L9,20 Z M10.976,20 L10.976,14 L13.168,14 C13.701336,14 14.1359983,14.1802799 14.472,14.5408451 C14.8080017,14.9014103 15.0070252,15.3899871 15.0070252,15.9702716 C15.0070252,16.5505562 14.8080017,17.0738404 14.472,17.4428563 C14.1359983,17.8118722 13.701336,17.9963774 13.168,17.9963774 L12.008,17.9963774 L12.008,20 L10.976,20 Z M12.0092665,17.000871 L13.0070293,17.000871 C13.3056975,17.000871 13.5390285,16.9128719 13.7070293,16.736871 C13.8750302,16.5608701 13.9945072,16.2583251 13.9945072,15.9596569 C13.9945072,15.6663221 13.8590302,15.4375022 13.6910293,15.264168 C13.5230285,15.0908338 13.2950308,15.004168 13.0070293,15.004168 L11.9932665,15.004168 L12.0092665,17.000871 Z" id="ZIP" fill="#FFFFFF"></path>
            </g>
        </g>
    </g>
</svg>