<?xml version="1.0" encoding="UTF-8"?>
<svg width="41px" height="41px" viewBox="0 0 41 41" version="1.1" xmlns="http://www.w3.org/2000/svg" xmlns:xlink="http://www.w3.org/1999/xlink">
    <!-- Generator: Sketch 46.2 (44496) - http://www.bohemiancoding.com/sketch -->
    <title>Group 50</title>
    <desc>Created with Sketch.</desc>
    <defs></defs>
    <g id="Page-1" stroke="none" stroke-width="1" fill="none" fill-rule="evenodd">
        <g id="Group-50" fill-rule="nonzero" fill="#224592">
            <path d="M36.4608725,7.53840178 C33.3170146,9.25616707 29.8106619,10.196894 25.9875545,10.3408276 C22.9819174,10.4539848 20.4800783,9.56529245 17.2841134,7.71335475 C16.9906941,7.54332966 16.6891802,7.36445524 16.3320287,7.14940023 C16.1963715,7.0677157 16.1010306,7.01005948 15.8736895,6.8723225 C15.6481029,6.73553529 15.6481029,6.73553529 15.4258951,6.60093145 C12.3891311,4.76307802 10.8796129,4.11547748 9.09511898,4.03364584 C8.47701997,4.00530164 6.88129316,4.55948246 4.56476856,5.74987591 L4.56476856,16.2429062 C4.56476856,18.2992859 6.23933989,19.9663111 8.30502831,19.9663111 L32.7206127,19.9663111 C34.7863011,19.9663111 36.4608725,18.2992859 36.4608725,16.2429062 L36.4608725,7.53840178 Z M40.5128205,16.2429062 C40.5128205,20.5270307 37.0241302,23.9999998 32.7206127,23.9999998 L8.30502831,23.9999998 C4.00151078,23.9999998 0.512820513,20.5270307 0.512820513,16.2429062 L0.512820513,3.35929292 C4.56411813,1.04029212 7.48703556,-0.0780621743 9.28157279,0.00423002476 C15.9061277,0.308012629 20.0131158,6.52918297 25.8344242,6.31002046 C31.1365244,6.11040527 35.7193571,4.7111969 39.3836887,0.921121809 C39.6572002,0.638200373 39.983215,0.388765489 40.2480178,0.535995799 C40.5128205,0.68322611 40.5128205,0.961946239 40.5128205,1.30524857 L40.5128205,16.2429062 Z" id="Rectangle-24-Copy-2" transform="translate(20.512821, 12.000000) scale(-1, 1) rotate(-180.000000) translate(-20.512821, -12.000000) "></path>
            <path d="M0.349539296,23.9214644 L0.349539296,31.3442402 C0.349539296,36.9393152 3.02401418,40.3086723 9.24324407,40.3086723 L31.4558345,40.3086723 C37.2354421,40.3086723 40.3495393,37.5153952 40.3495393,31.3442402 L40.3495393,27.6844587 C39.5548229,26.8999993 38.8325028,26.2686427 38.1825792,25.790389 C37.5326555,25.3121354 36.9089743,24.9573757 36.3115355,24.7261102 L36.3115355,31.3749073 C36.3115355,34.5784432 34.6340954,36.2724915 31.4558345,36.2724915 L9.24324407,36.2724915 C6.06498333,36.2724915 4.35854584,34.3918498 4.35854584,31.1883139 L4.35854584,26.1263473 C3.62996829,25.8204572 2.93455089,25.5012364 2.27229364,25.1686847 C1.61003639,24.8361331 0.969118273,24.420393 0.349539296,23.9214644 Z" id="Path-10"></path>
        </g>
    </g>
</svg>