<?xml version="1.0" encoding="UTF-8"?>
<svg width="50px" height="50px" viewBox="0 0 50 50" version="1.1" xmlns="http://www.w3.org/2000/svg" xmlns:xlink="http://www.w3.org/1999/xlink">
    <!-- Generator: Sketch 45.1 (43504) - http://www.bohemiancoding.com/sketch -->
    <title>whatsapp</title>
    <desc>Created with Sketch.</desc>
    <defs>
        <rect id="path-1" x="0" y="0" width="50" height="50" rx="12"></rect>
    </defs>
    <g id="Page-1" stroke="none" stroke-width="1" fill="none" fill-rule="evenodd">
        <g id="Иконки" transform="translate(-408.000000, -1715.000000)">
            <g id="whatsapp" transform="translate(408.000000, 1715.000000)">
                <mask id="mask-2" fill="white">
                    <use xlink:href="#path-1"></use>
                </mask>
                <use id="Mask" fill="#2CB41C" xlink:href="#path-1"></use>
                <path d="M35.5115724,14.3415273 C32.7043746,11.5433557 28.9710271,10.0015728 24.9935596,10 C16.7980678,10 10.1279514,16.6405712 10.1246717,24.8029233 C10.1235784,27.4120417 10.8082805,29.9589356 12.1093766,32.2038606 L10,39.8752311 L17.8822133,37.8166572 C20.0539054,38.9959808 22.4990735,39.617501 24.9876074,39.6185495 L24.9937216,39.6185495 C33.1883631,39.6185495 39.8590868,32.9771314 39.8624071,24.8147391 C39.8639862,20.8591414 38.3188512,17.1396989 35.5115724,14.3415273 M24.9937216,37.1182334 L24.9886602,37.1182334 C22.7711323,37.1173865 20.5960794,36.5242566 18.698673,35.4031652 L18.2473607,35.1364825 L13.570007,36.3581092 L14.8185052,31.8176083 L14.5246219,31.3521134 C13.287542,29.3930264 12.6341394,27.128704 12.6351112,24.8038508 C12.6378241,18.0196347 18.1818059,12.5002758 24.998621,12.5002758 C28.2994845,12.5015259 31.4024283,13.7830786 33.7357199,16.108819 C36.0690115,18.4345595 37.3532632,21.5260295 37.352008,24.8137712 C37.3491737,31.5984713 31.8052729,37.1182334 24.9937216,37.1182334 M31.7725157,27.9029426 C31.4009706,27.7178013 29.5744234,26.8229041 29.2338539,26.6994631 C28.893325,26.5760221 28.6456823,26.5143217 28.3979586,26.8846448 C28.1503159,27.2549276 27.4383228,28.0881244 27.2215342,28.3349661 C27.0048671,28.5818482 26.7881595,28.6127387 26.4166144,28.427557 C26.0451098,28.2424156 24.8480351,27.8518483 23.4289484,26.5916286 C22.3245575,25.6108753 21.578876,24.3994513 21.3621683,24.0291685 C21.1454607,23.6588454 21.339129,23.4586217 21.525104,23.2742466 C21.6922102,23.1085025 21.8966085,22.8422231 22.082381,22.6261912 C22.2681131,22.4101996 22.3300238,22.2559084 22.4538451,22.0090667 C22.577707,21.7621846 22.5157963,21.5461527 22.42291,21.3610113 C22.3300238,21.1758699 21.5870551,19.3551852 21.2774208,18.6145793 C20.9758846,17.8932901 20.6695705,17.9908815 20.4415254,17.9795899 C20.2250607,17.9688629 19.9771346,17.9665643 19.7294918,17.9665643 C19.4818086,17.9665643 19.0793285,18.0591551 18.738759,18.4294379 C18.3982301,18.799761 17.4385133,19.6946581 17.4385133,21.5153025 C17.4385133,23.3359469 18.7697346,25.0948506 18.9555071,25.3417327 C19.1412392,25.5886148 21.5752318,29.3248737 25.3021007,30.9271069 C26.1884883,31.3081973 26.8805193,31.5357627 27.4200614,31.7063461 C28.3100932,31.9877884 29.1199934,31.9480663 29.7601554,31.8528542 C30.4739301,31.7466731 31.9582072,30.9579974 32.2678416,30.0939505 C32.5774355,29.2299035 32.5774355,28.4892976 32.4845492,28.3350064 C32.3917034,28.1807152 32.1440202,28.0881244 31.7725157,27.9029426" id="Shape" fill="#FFFFFF" fill-rule="nonzero" mask="url(#mask-2)"></path>
            </g>
        </g>
    </g>
</svg>