<?xml version="1.0" encoding="UTF-8"?>
<svg width="25px" height="14px" viewBox="0 0 25 14" version="1.1" xmlns="http://www.w3.org/2000/svg" xmlns:xlink="http://www.w3.org/1999/xlink">
    <!-- Generator: Sketch 44.1 (41455) - http://www.bohemiancoding.com/sketch -->
    <title>Line</title>
    <desc>Created with Sketch.</desc>
    <defs></defs>
    <g id="Symbols" stroke="none" stroke-width="1" fill="none" fill-rule="evenodd">
        <g id="footer" transform="translate(-227.000000, -286.000000)" fill-rule="nonzero" fill="#FFFFFF">
            <g id="Group-4" transform="translate(227.000000, 281.000000)">
                <path d="M11.2189274,6.03956912 C10.8721712,4.94675258 9.32078252,4.96111723 8.99432133,6.06016724 L6.81902185,13.3834357 L5.85685483,11.7882173 C5.64624333,11.4390354 5.26821619,11.2255783 4.86043534,11.2255783 L0.663508323,11.2255783 L0.663508323,13.552851 L4.20337549,13.552851 L6.18753688,16.8424781 C6.70971758,17.7082241 8.0115378,17.5419989 8.29942267,16.5728182 L10.1464827,10.3545865 L12.4708859,17.6800402 C12.7783239,18.648944 14.0930472,18.7855514 14.5931165,17.9005523 L17.049788,13.552851 L24.7081781,13.552851 L24.7081781,11.2255783 L16.3707486,11.2255783 C15.9511636,11.2255783 15.5640714,11.4514657 15.3576577,11.816767 L13.8811796,14.4297683 L11.2189274,6.03956912 Z" id="Line"></path>
            </g>
        </g>
    </g>
</svg>