<?xml version="1.0" standalone="no"?>
<!DOCTYPE svg PUBLIC "-//W3C//DTD SVG 1.1//EN" "http://www.w3.org/Graphics/SVG/1.1/DTD/svg11.dtd" >
<svg xmlns="http://www.w3.org/2000/svg">
<metadata>Generated by IcoMoon</metadata>
<defs>
<font id="icomoon" horiz-adv-x="1024">
<font-face units-per-em="1024" ascent="960" descent="-64" />
<missing-glyph horiz-adv-x="1024" />
<glyph unicode="&#x20;" horiz-adv-x="512" d="" />
<glyph unicode="&#xe900;" glyph-name="acept" d="M512-12.8c254.493 0 460.8 206.307 460.8 460.8s-206.307 460.8-460.8 460.8c-254.493 0-460.8-206.307-460.8-460.8s206.307-460.8 460.8-460.8zM512-64c-282.77 0-512 229.23-512 512s229.23 512 512 512c282.77 0 512-229.23 512-512s-229.23-512-512-512zM273.252 463.841l-31.051-40.71 226.542-172.794 305.848 334.468-37.784 34.551-274.247-299.909z" />
<glyph unicode="&#xe901;" glyph-name="add_file_clip" horiz-adv-x="919" d="M298.606 131.559l355.101 355.101c53.832 53.832 53.832 141.112 0 194.944s-141.112 53.832-194.944 0l-394.533-394.533c-75.622-75.622-75.622-198.228 0-273.85s198.228-75.622 273.85 0l503.605 503.605c97.411 97.411 97.411 255.345 0 352.756s-255.345 97.411-352.756 0l-468.31-468.31 37.132-37.132 468.31 468.31c76.903 76.903 201.588 76.903 278.491 0s76.903-201.588 0-278.491l-503.605-503.605c-55.114-55.114-144.471-55.114-199.585 0s-55.114 144.471 0 199.585l394.533 394.533c33.325 33.325 87.355 33.325 120.68 0s33.325-87.355 0-120.68l-355.101-355.101 37.132-37.132z" />
<glyph unicode="&#xe902;" glyph-name="add_files" horiz-adv-x="1312" d="M1000.895 654.304c0 65.48-54.893 119.152-123.317 119.152-25.445 0-49.556-7.397-69.949-21.008-34.16-22.8-80.65-7.98-95.312 30.384-25.721 67.299-92.143 113.168-167.747 113.168-99.077 0-178.818-77.969-178.818-173.419 0.002-1.11 0.002-1.11 0.014-2.216 0.507-39.55-34.624-70.087-73.718-64.077-9.903 1.522-19.983 2.294-30.188 2.294-105.782 0-190.959-83.283-190.959-185.29 0-4.206 0.143-8.39 0.429-12.549 0.207-3.015 0.2-6.042-0.021-9.056-0.271-3.699-0.407-7.424-0.407-11.171 0-82.727 67.063-149.79 149.79-149.79 6.434 0 9.511-0.223 12.561-0.666 9.395-1.366 18.946-2.057 28.608-2.057s19.213 0.692 28.608 2.057c3.049 0.443 6.126 0.666 9.207 0.666h773.434c82.727 0 149.79 67.063 149.79 149.79 0 3.783-0.139 7.544-0.415 11.277-0.243 3.29-0.232 6.593 0.034 9.882 0.254 3.136 0.381 6.297 0.381 9.48 0 65.48-54.893 119.152-123.317 119.152-2.896 0-5.775-0.095-8.634-0.285-2.746-0.182-5.501-0.187-8.248-0.015-3.179 0.2-6.377 0.3-9.591 0.3h-8.215c-35.346 0-64 28.654-64 64zM736.569 858.912l35.53-53.232 59.783 22.848c-0.401 1.048-0.807 2.094-1.219 3.136 14.993 3.781 30.714 5.792 46.915 5.792 103.452 0 187.317-82 187.317-183.152h8.215c4.569 0 9.104-0.143 13.601-0.426 4.253 0.282 8.546 0.426 12.872 0.426 103.452 0 187.317-82 187.317-183.152 0-4.928-0.199-9.81-0.59-14.639 0.391-5.282 0.59-10.617 0.59-15.999 0-118.073-95.717-213.79-213.79-213.79h-773.434c-12.339-1.794-24.966-2.723-37.816-2.723s-25.477 0.929-37.816 2.723c-121.426 0-217.144 95.717-217.144 213.79 0 5.331 0.195 10.616 0.579 15.849-0.384 5.594-0.579 11.239-0.579 16.928 0 129.73 101.349 236.316 230.854 248.191 0.003-0.939 0.006-1.288 0.022-2.757l63.995 0.82 9.723 63.257c25.566 102.094 120.351 177.199 233.076 177.199 80.86 0 152.488-38.645 196.62-98.076-1.55-0.987-3.091-1.99-4.621-3.012zM672 530.745v-562.745c0-17.673-14.327-32-32-32s-32 14.327-32 32v562.745l-117.019-117.019c-12.497-12.497-32.758-12.497-45.255 0s-12.497 32.758 0 45.255l158.392 158.392c9.703 9.703 24.086 11.872 35.882 6.508 11.796 5.364 26.179 3.195 35.882-6.508l158.392-158.392c12.497-12.497 12.497-32.758 0-45.255s-32.758-12.497-45.255 0l-117.019 117.019z" />
<glyph unicode="&#xe903;" glyph-name="add" horiz-adv-x="1050" d="M501.939 960v-1024h51.2v1024zM15.539 422.4h1024v51.2h-1024z" />
<glyph unicode="&#xe904;" glyph-name="alarm_clock_fill" horiz-adv-x="1170" d="M585.143-64c-242.374 0-438.857 196.483-438.857 438.857s196.483 438.857 438.857 438.857c242.374 0 438.857-196.483 438.857-438.857s-196.483-438.857-438.857-438.857zM585.143 287.086h29.257v292.571h-58.514v-234.057h-175.543v-58.514h204.8zM1118.072 856.293l-32.665 32.665c-57.128 57.128-149.751 57.128-206.879 0l-11.471-11.471-36.756-34.534 233.29-243.758 43.010 38.748 11.471 11.471c57.128 57.128 57.128 149.751 0 206.879zM44.925 852.042l32.665 32.665c57.128 57.128 149.751 57.128 206.879 0l11.471-11.471 36.756-34.534-233.29-243.758-43.010 38.748-11.471 11.471c-57.128 57.128-57.128 149.751 0 206.879z" />
<glyph unicode="&#xe905;" glyph-name="alarm_clock" horiz-adv-x="1170" d="M585.143-5.486c210.058 0 380.343 170.285 380.343 380.343s-170.285 380.343-380.343 380.343c-210.058 0-380.343-170.285-380.343-380.343s170.285-380.343 380.343-380.343zM585.143-64c-242.374 0-438.857 196.483-438.857 438.857s196.483 438.857 438.857 438.857c242.374 0 438.857-196.483 438.857-438.857s-196.483-438.857-438.857-438.857zM555.75 287.222v292.571h58.514v-292.571h-58.514zM614.4 287.086h-234.057v58.514h234.057v-58.514zM1067.427 685.857l6.663 6.663c34.277 34.277 34.277 89.851 0 124.128l-32.665 32.665c-34.277 34.277-89.851 34.277-124.128 0l-10.103-10.103 160.233-153.352zM1082.8 890.688l32.665-32.665c57.128-57.128 57.128-149.751 0-206.879l-11.471-11.471-34.534-36.756-243.758 233.29 38.748 43.010 11.471 11.471c57.128 57.128 149.751 57.128 206.879 0zM251.252 837.288l-6.663 6.663c-34.277 34.277-89.851 34.277-124.128 0l-32.665-32.665c-34.277-34.277-34.277-89.851 0-124.128l10.103-10.103 153.352 160.233zM46.421 852.661l32.665 32.665c57.128 57.128 149.751 57.128 206.879 0l11.471-11.471 36.756-34.534-233.29-243.758-43.010 38.748-11.471 11.471c-57.128 57.128-57.128 149.751 0 206.879z" />
<glyph unicode="&#xe906;" glyph-name="all" horiz-adv-x="1280" d="M288 672.231v-31.769h-64v63.538c0 53.019 42.981 96 96 96h704c53.019 0 96-42.981 96-96v-288h64c17.673 0 32 14.327 32 32v416c0 17.673-14.327 32-32 32h-704c-17.673 0-32-14.327-32-32v-63.538h-64v63.538c0 53.019 42.981 96 96 96h704c53.019 0 96-42.981 96-96v-416c0-53.019-42.981-96-96-96h-64v-64c0-53.019-42.981-96-96-96h-64.697v64h64.697c17.673 0 32 14.327 32 32v416c0 17.673-14.327 32-32 32h-704c-17.673 0-32-14.327-32-32v-31.769zM832 640h-704c-70.692 0-128-57.308-128-128v-448c0-70.692 57.308-128 128-128h704c70.692 0 128 57.308 128 128v448c0 70.692-57.308 128-128 128zM832 576c35.346 0 64-28.654 64-64v-448c0-35.346-28.654-64-64-64h-704c-35.346 0-64 28.654-64 64v448c0 35.346 28.654 64 64 64h704z" />
<glyph unicode="&#xe907;" glyph-name="arrow_left" horiz-adv-x="561" d="M539.566-15.695l-34.928-34.026-504.638 518.014 505.095 491.707 34.014-34.94-470.143-457.682z" />
<glyph unicode="&#xe908;" glyph-name="arrow_right" horiz-adv-x="561" d="M0-15.695l34.928-34.026 504.638 518.014-505.095 491.707-34.014-34.94 470.143-457.682z" />
<glyph unicode="&#xe909;" glyph-name="arrow_specify" horiz-adv-x="899" d="M24.976 960c0-14.903-0.038-26.654-0.156-54.507-0.272-64.236-0.23-93.781 0.43-130.325 3.396-187.905 24.825-315.949 82.009-417.349 72.739-128.982 199.719-197.040 392.253-197.040h332.154c-0.001 49.951-0.001 49.951-0.005 49.951h-32.442v-49.951h32.446l-0.001 49.951h-332.153c-175.16 0-285.225 58.992-348.744 171.625-52.026 92.253-72.318 213.505-75.575 393.714-0.652 36.051-0.693 65.343-0.423 129.21 0.118 27.924 0.156 39.721 0.156 54.718h-49.951zM878.421 188.384l-244.161 250.293-35.756-34.88 244.161-250.293zM846.704 205.596l-267.747-224.884 32.126-38.25 267.747 224.884z" />
<glyph unicode="&#xe90a;" glyph-name="article" horiz-adv-x="1078" d="M134.737 690.526c-44.648 0-80.842-36.194-80.842-80.842v-538.947c0-44.648 36.194-80.842 80.842-80.842h53.895v700.632h-53.895zM134.737 744.421h107.789v-808.421h-107.789c-74.413 0-134.737 60.324-134.737 134.737v538.947c0 74.413 60.324 134.737 134.737 134.737zM941.682-10.105c44.648 0 80.842 36.194 80.842 80.842v754.526c0 44.648-36.194 80.842-80.842 80.842h-617.475c-44.648 0-80.842-36.194-80.842-80.842v-714.417c0-42.399-9.632-83.661-27.549-120.952h725.866zM941.682 960c74.413 0 134.737-60.324 134.737-134.737v-754.526c0-74.413-60.324-134.737-134.737-134.737h-835.368c52.614 42.802 83.156 107.021 83.156 174.847v714.417c0 74.413 60.324 134.737 134.737 134.737h617.475zM420.807 744.421h424.912c24.049 0 43.544-19.495 43.544-43.544v-155.438c0-24.049-19.495-43.544-43.544-43.544h-424.912c-24.049 0-43.544 19.495-43.544 43.544v155.438c0 24.049 19.495 43.544 43.544 43.544zM404.211 394.105h458.105c14.883 0 26.947-12.065 26.947-26.947s-12.065-26.947-26.947-26.947h-458.105c-14.883 0-26.947 12.065-26.947 26.947s12.065 26.947 26.947 26.947zM404.211 232.421h458.105c14.883 0 26.947-12.065 26.947-26.947s-12.065-26.947-26.947-26.947h-458.105c-14.883 0-26.947 12.065-26.947 26.947s12.065 26.947 26.947 26.947z" />
<glyph unicode="&#xe90b;" glyph-name="brocken_heart_fill" horiz-adv-x="1138" d="M619.025 830.283c-0.886 1.092-1.797 2.201-2.731 3.326 78.411 83.666 269.079 236.031 460.477 1.452 280.588-343.89-497.731-899.061-497.731-899.061s-818.591 531.053-509.176 899.061c189.349 225.205 387.93 77.743 470.073-3.050-2.666-3.508-5.126-6.866-7.374-10.051l16.988 0.37c10.322-10.642 18.162-19.552 23.154-25.449l8.946-4.17c4.068 5.43 12.79 16.668 25.472 30.873l5.36 0.117 6.542 6.583zM619.025 830.283c1.769-2.18 3.442-4.292 5.019-6.331l-11.561-0.252-30.808-31-0.023 0.011c-1.723-2.3-2.611-3.558-2.611-3.558s-2.182 2.822-6.335 7.728l-10.294 4.798-124.034-297.059 181.734-192.816-73.529-255.681-20.565-83.489 47.302-32.802 26.148 94.351 84.276 293.052-178.644 189.537 90.64 217.083 51.259 124.579-27.975-28.149z" />
<glyph unicode="&#xe90c;" glyph-name="broken_heart" horiz-adv-x="1138" d="M522.585 45.577c-66.233 49.419-132.46 103.993-194.082 161.973-136.009 127.972-229.215 253.472-260.386 365.439-23.765 85.363-10.515 159.089 45.29 225.462 12.113 14.407 24.308 27.152 36.563 38.298 99.609 90.59 202.42 75.588 309.609-9.453 20.457-16.23 39.094-33.72 55.415-51.164 9.596-10.256 16.084-17.954 19.041-21.778 23.405-30.268 69.416-29.266 91.48 1.992 2.774 3.93 8.892 11.857 17.97 22.418 15.428 17.949 33.105 35.939 52.564 52.614 114.951 98.501 223.758 106.071 336.642-32.281 57.484-70.453 62.661-155.502 20.514-259.099-40.731-100.117-123.283-210.342-235.212-323.325-59.545-60.105-123.526-117.111-187.512-169.067-18.922-15.364-36.682-29.335-52.949-41.772-16.875 11.798-35.307 25.088-54.948 39.743zM624.044 823.952l-16.921-0.369c-18.053-20.222-28.083-34.431-28.083-34.431s-10.58 13.682-29.488 33.177l-16.988-0.37c2.248 3.185 4.708 6.543 7.374 10.051-82.143 80.794-280.724 228.256-470.073 3.050-309.415-368.008 509.176-899.061 509.176-899.061s778.319 555.171 497.731 899.061c-191.398 234.579-382.066 82.215-460.477-1.452 2.798-3.371 5.383-6.597 7.75-9.657zM531.157 2.482l54.673-15.723 97.914 340.475-178.644 189.537 109.808 262.989-52.497 21.919-124.034-297.059 181.734-192.816z" />
<glyph unicode="&#xe90d;" glyph-name="calendar" d="M153.6 806.4c-56.554 0-102.4-45.846-102.4-102.4v-614.4c0-56.554 45.846-102.4 102.4-102.4h716.8c56.554 0 102.4 45.846 102.4 102.4v614.4c0 56.554-45.846 102.4-102.4 102.4h-716.8zM153.6 857.6h716.8c84.831 0 153.6-68.769 153.6-153.6v-614.4c0-84.831-68.769-153.6-153.6-153.6h-716.8c-84.831 0-153.6 68.769-153.6 153.6v614.4c0 84.831 68.769 153.6 153.6 153.6zM230.4 960v-102.4h51.2v102.4zM486.4 960v-102.4h51.2v102.4zM742.4 960v-102.4h51.2v102.4zM230.4 806.4v-102.4h51.2v102.4zM486.4 806.4v-102.4h51.2v102.4zM742.4 806.4v-102.4h51.2v102.4zM204.8 550.4h102.4v-102.4h-102.4v102.4zM460.8 550.4h102.4v-102.4h-102.4v102.4zM716.8 550.4h102.4v-102.4h-102.4v102.4zM204.8 294.4h102.4v-102.4h-102.4v102.4zM460.8 294.4h102.4v-102.4h-102.4v102.4zM716.8 294.4h102.4v-102.4h-102.4v102.4z" />
<glyph unicode="&#xe90e;" glyph-name="cancel" d="M512-12.8c254.493 0 460.8 206.307 460.8 460.8s-206.307 460.8-460.8 460.8c-254.493 0-460.8-206.307-460.8-460.8s206.307-460.8 460.8-460.8zM512-64c-282.77 0-512 229.23-512 512s229.23 512 512 512c282.77 0 512-229.23 512-512s-229.23-512-512-512zM524.423 399.373l199.121-199.121 36.204 36.204-199.121 199.121 199.121 199.121-36.204 36.204-199.121-199.121-199.121 199.121-36.204-36.204 199.121-199.121-199.121-199.121 36.204-36.204 199.121 199.121z" />
<glyph unicode="&#xe90f;" glyph-name="clock" d="M512-12.8c254.493 0 460.8 206.307 460.8 460.8s-206.307 460.8-460.8 460.8c-254.493 0-460.8-206.307-460.8-460.8s206.307-460.8 460.8-460.8zM512-64c-282.77 0-512 229.23-512 512s229.23 512 512 512c282.77 0 512-229.23 512-512s-229.23-512-512-512zM256 422.4v-51.2h281.6v358.4h-51.2v-307.2z" />
<glyph unicode="&#xe910;" glyph-name="close" horiz-adv-x="1058" d="M24.795 909.165l965.436-965.436 48.272 48.272-965.436 965.436zM73.067-56.271l965.436 965.436-48.272 48.272-965.436-965.436z" />
<glyph unicode="&#xe911;" glyph-name="comments_fill" horiz-adv-x="1078" d="M107.504 960h856.205c58.883 0 106.809-47.369 107.497-106.248l6.696-573.135c0.694-59.369-46.872-108.059-106.241-108.753-0.419-0.005-0.837-0.007-1.256-0.007h-391.448l-241.74-213.277c-24.8-21.88-62.642-19.513-84.522 5.287-9.652 10.94-14.978 25.028-14.978 39.617v168.372h-130.213c-59.373 0-107.504 48.131-107.504 107.504v573.135c0 59.373 48.131 107.504 107.504 107.504z" />
<glyph unicode="&#xe912;" glyph-name="copy_fill" d="M93.091 755.2h633.018c51.413 0 93.091-41.678 93.091-93.091v-633.018c0-51.413-41.678-93.091-93.091-93.091h-633.018c-51.413 0-93.091 41.678-93.091 93.091v633.018c0 51.413 41.678 93.091 93.091 93.091zM297.891 960h623.709c56.554 0 102.4-45.846 102.4-102.4v-623.709c0-51.413-41.678-93.091-93.091-93.091h-34.909v588.8c0 56.554-45.846 102.4-102.4 102.4h-588.8v34.909c0 51.413 41.678 93.091 93.091 93.091z" />
<glyph unicode="&#xe913;" glyph-name="delete_fill" d="M512-64c-282.77 0-512 229.23-512 512s229.23 512 512 512c282.77 0 512-229.23 512-512s-229.23-512-512-512zM562.82 456.722l171.968 171.969-54.306 54.306-171.968-171.969-171.968 171.969-54.306-54.306 171.968-171.969-171.968-171.968 54.306-54.306 171.968 171.968 171.968-171.968 54.306 54.306-171.968 171.968z" />
<glyph unicode="&#xe914;" glyph-name="delete_user" d="M870.4 421.062h-51.2v371.343c0 64.283-52.112 116.395-116.395 116.395h-530.559c-66.852 0-121.046-54.194-121.046-121.046v-525.909c0-66.852 54.194-121.046 121.046-121.046h377.713v-51.2h-377.713c-95.129 0-172.246 77.117-172.246 172.246v525.909c0 95.129 77.117 172.246 172.246 172.246h530.559c92.56 0 167.595-75.035 167.595-167.595v-371.343zM870.4 421.062h-51.2v371.343c0 64.283-52.112 116.395-116.395 116.395h-530.559c-66.852 0-121.046-54.194-121.046-121.046v-525.909c0-66.852 54.194-121.046 121.046-121.046h377.713v-51.2h-377.713c-95.129 0-172.246 77.117-172.246 172.246v525.909c0 95.129 77.117 172.246 172.246 172.246h530.559c92.56 0 167.595-75.035 167.595-167.595v-371.343zM435.2 448c-98.969 0-179.2 80.231-179.2 179.2s80.231 179.2 179.2 179.2c98.969 0 179.2-80.231 179.2-179.2s-80.231-179.2-179.2-179.2zM435.2 499.2c70.692 0 128 57.308 128 128s-57.308 128-128 128c-70.692 0-128-57.308-128-128s57.308-128 128-128zM764.835-9.635c113.108 0 204.8 91.692 204.8 204.8s-91.692 204.8-204.8 204.8c-113.108 0-204.8-91.692-204.8-204.8s91.692-204.8 204.8-204.8zM764.835-60.835c-141.385 0-256 114.615-256 256s114.615 256 256 256c141.385 0 256-114.615 256-256s-114.615-256-256-256zM650.976 104.407l204.617 204.617 36.204-36.204-204.617-204.617-36.204 36.204zM855.593 68.203l-204.617 204.617 36.204 36.204 204.617-204.617-36.204-36.204zM435.2 371.2c42.476 0 77.795-5.596 109.133-20.356l18.75-9.91c7.149 9.095 13.036 16.413 17.659 21.954s9.276 11.968 13.959 19.28l-17.992 9.623c-40.118 21.080-85.543 30.609-141.509 30.609-159.575 0-258.103-84.456-297.021-255.402l-3.245-26.067h54.57v5.494c32.398 154.112 109.148 224.775 245.696 224.775z" />
<glyph unicode="&#xe915;" glyph-name="dislike_fill" horiz-adv-x="1144" d="M1084.235 327.529h-180.706c-33.267 0-60.235 26.968-60.235 60.235v481.882c0 33.267 26.968 60.235 60.235 60.235h180.706c33.267 0 60.235-26.968 60.235-60.235v-481.882c0-33.267-26.968-60.235-60.235-60.235zM391.678 301.767l-292.613-4.443c-49.895-0.758-90.957 39.076-91.714 88.971-0.071 4.654 0.218 9.306 0.865 13.916l63.611 453.743c6.255 44.618 44.424 77.809 89.478 77.809h465.929c69.427 0 125.708-56.282 125.708-125.708v-306.73c0-18.040-2.452-35.515-7.042-52.106-0.039-27.443 0.089-41.142 0.384-41.097 1.184 0.181-29.895-67.637-51.98-119.001-36.048-83.837-162.719-141.033-198.696-190.499-13.476-18.528-23.551-51.228-30.227-98.101h0.001c-5.507-38.667-41.317-65.549-79.985-60.042-31.306 4.459-55.848 29.159-60.105 60.494 0 0 0 0 0 0-13.458 99.066-4.259 173.398 66.386 302.796z" />
<glyph unicode="&#xe916;" glyph-name="eye_close" horiz-adv-x="1280" d="M662.95 297.637c77.492 2.368 149.913 14.881 217.248 36.077l69.207-206.618 60.371 20.223-69.687 208.042c45.977 18.84 89.351 41.91 130.135 68.645l145.273-136.455 43.594 46.414-136.075 127.811c38.674 30.114 72.096 61.896 100.37 93.751 19.392 21.835 32.424 39.112 39.25 49.529l-53.243 34.924c-1.129-1.718-3.747-5.446-7.856-10.888-7.082-9.372-15.666-19.91-25.789-31.298-29.119-32.814-64.393-65.698-105.879-96.417-118.616-87.835-262.847-140.488-434.006-140.488-171.251 0-317.394 52.713-439.043 140.695-42.578 30.783-78.998 63.756-109.244 96.633-10.513 11.424-19.466 21.983-26.861 31.385-4.309 5.469-7.062 9.224-8.265 10.962l-52.45-36.105c7.119-10.354 20.689-27.566 40.729-49.352 29.706-32.299 64.7-64.508 105.066-94.973l-134.313-126.176 43.594-46.414 144.151 135.422c42.729-27.321 88.082-50.77 136.014-69.752l-75.301-209.679 59.919-21.521 75.486 210.186c63.788-19.429 131.773-31.224 203.943-34.219v-249.012h63.675v248.677z" />
<glyph unicode="&#xe917;" glyph-name="eye_open" horiz-adv-x="1463" d="M67.481 366.416c7.517 11.122 20.78 28.445 39.892 49.98 29.791 33.567 65.005 67.065 105.757 98.788l-118.929 111.713 45.932 48.902 128.624-120.82c42.97 28.179 88.671 52.473 137.116 72.328l-62.78 187.41 63.615 21.312 62.275-185.9c70.947 22.337 147.246 35.524 228.902 38.018v228.482h67.093v-228.843c76.047-3.144 147.69-15.587 214.896-36.058l68.195 189.895 63.144-22.676-68.003-189.368c50.513-20.008 98.29-44.71 143.321-73.502l127.447 119.713 45.932-48.902-117.081-109.977c42.525-32.102 79.41-66.053 110.701-100.081 20.453-22.24 34.499-39.957 42.181-50.964h5.366c-7.029-10.518-37.582-54.354-57.473-76.358-32.735-36.207-72.204-72.316-118.547-105.996-132.268-96.124-293.38-153.839-483.441-153.839-189.96 0-352.76 57.639-487.992 153.62-47.357 33.612-87.929 69.65-121.784 105.776-20.56 21.939-65.35 66.876-72.685 77.333h8.323zM152.775 366.416h0.582c7.561-9.422 16.709-20.003 27.44-31.459 30.905-32.98 68.14-66.050 111.662-96.939 124.423-88.308 273.925-141.239 449.159-141.239 175.136 0 322.686 52.857 444 141.020 42.413 30.823 78.472 63.819 108.224 96.718 7.986 8.834 15.044 17.144 21.171 24.801-3.426 3.917-7.048 7.955-10.862 12.107-31.865 34.647-70.246 69.379-115.102 101.819-128.181 92.697-282.162 148.247-462.614 148.247-180.349 0-332.326-55.472-457.308-148.024-43.715-32.371-80.895-67.033-111.568-101.599-1.634-1.84-3.227-3.656-4.784-5.453zM606.010 91.256c-165.315 0-299.485 132.594-299.485 296.359s134.175 296.359 299.485 296.359c165.315 0 299.485-132.594 299.485-296.359s-134.175-296.359-299.485-296.359zM606.010 158.344c128.436 0 232.397 102.737 232.397 229.266s-103.961 229.266-232.397 229.266c-128.436 0-232.397-102.737-232.397-229.266s103.961-229.266 232.397-229.266zM676.285 402.030c0-46.316-37.996-83.864-84.862-83.864s-84.862 37.549-84.862 83.864c0 46.316 37.996 83.864 84.862 83.864s84.862-37.549 84.862-83.864z" />
<glyph unicode="&#xe918;" glyph-name="filter" horiz-adv-x="1205" d="M30.118 869.647h933.647c16.634 0 30.118-13.484 30.118-30.118s-13.484-30.118-30.118-30.118h-933.647c-16.634 0-30.118 13.484-30.118 30.118s13.484 30.118 30.118 30.118zM30.118 508.235h451.765c16.634 0 30.118-13.484 30.118-30.118v0 0c0-16.634-13.484-30.118-30.118-30.118h-451.765c-16.634 0-30.118 13.484-30.118 30.118v0 0c0 16.634 13.484 30.118 30.118 30.118zM692.706 508.235h451.765c16.634 0 30.118-13.484 30.118-30.118v0 0c0-16.634-13.484-30.118-30.118-30.118h-451.765c-16.634 0-30.118 13.484-30.118 30.118v0 0c0 16.634 13.484 30.118 30.118 30.118zM606.655 400.672c33.267 0 60.235 26.968 60.235 60.235s-26.968 60.235-60.235 60.235c-33.267 0-60.235-26.968-60.235-60.235s26.968-60.235 60.235-60.235zM606.655 340.437c-66.534 0-120.471 53.937-120.471 120.471s53.937 120.471 120.471 120.471c66.534 0 120.471-53.937 120.471-120.471s-53.937-120.471-120.471-120.471zM30.118 116.706h903.529c16.634 0 30.118-13.484 30.118-30.118s-13.484-30.118-30.118-30.118h-903.529c-16.634 0-30.118 13.484-30.118 30.118s13.484 30.118 30.118 30.118zM1054.118 22.050c33.267 0 60.235 26.968 60.235 60.235s-26.968 60.235-60.235 60.235c-33.267 0-60.235-26.968-60.235-60.235s26.968-60.235 60.235-60.235zM1054.118-38.185c-66.534 0-120.471 53.937-120.471 120.471s53.937 120.471 120.471 120.471c66.534 0 120.471-53.937 120.471-120.471s-53.937-120.471-120.471-120.471zM1084.235 779.294c33.267 0 60.235 26.968 60.235 60.235s-26.968 60.235-60.235 60.235c-33.267 0-60.235-26.968-60.235-60.235s26.968-60.235 60.235-60.235zM1084.235 719.059c-66.534 0-120.471 53.937-120.471 120.471s53.937 120.471 120.471 120.471c66.534 0 120.471-53.937 120.471-120.471s-53.937-120.471-120.471-120.471z" />
<glyph unicode="&#xe919;" glyph-name="funny" d="M512-12.8c254.493 0 460.8 206.307 460.8 460.8s-206.307 460.8-460.8 460.8c-254.493 0-460.8-206.307-460.8-460.8s206.307-460.8 460.8-460.8zM512-64c-282.77 0-512 229.23-512 512s229.23 512 512 512c282.77 0 512-229.23 512-512s-229.23-512-512-512zM321.422 432.64c-53.726 0-97.28 43.554-97.28 97.28s43.554 97.28 97.28 97.28c53.726 0 97.28-43.554 97.28-97.28s-43.554-97.28-97.28-97.28zM321.422 483.84c25.449 0 46.080 20.631 46.080 46.080s-20.631 46.080-46.080 46.080c-25.449 0-46.080-20.631-46.080-46.080s20.631-46.080 46.080-46.080zM702.578 432.64c-53.726 0-97.28 43.554-97.28 97.28s43.554 97.28 97.28 97.28c53.726 0 97.28-43.554 97.28-97.28s-43.554-97.28-97.28-97.28zM702.578 483.84c25.449 0 46.080 20.631 46.080 46.080s-20.631 46.080-46.080 46.080c-25.449 0-46.080-20.631-46.080-46.080s20.631-46.080 46.080-46.080zM313.388 247.825c65.639-45.932 131.968-69.228 198.612-69.228 67.893 0 130.184 22.082 196.652 69.338l-29.667 41.729c-58.214-41.387-110.343-59.867-166.985-59.867-55.507 0-111.802 19.772-169.258 59.977l-29.354-41.949z" />
<glyph unicode="&#xe91a;" glyph-name="happy" d="M512-12.8c254.493 0 460.8 206.307 460.8 460.8s-206.307 460.8-460.8 460.8c-254.493 0-460.8-206.307-460.8-460.8s206.307-460.8 460.8-460.8zM512-64c-282.77 0-512 229.23-512 512s229.23 512 512 512c282.77 0 512-229.23 512-512s-229.23-512-512-512zM313.388 247.825c65.639-45.932 131.968-69.228 198.612-69.228 67.893 0 130.184 22.082 196.652 69.338l-29.667 41.729c-58.214-41.387-110.343-59.867-166.985-59.867-55.507 0-111.802 19.772-169.258 59.977l-29.354-41.949zM817.815 475.904l33.898 38.371-134.97 119.236-134.97-119.236 33.898-38.371 101.071 89.289zM408.215 475.904l33.898 38.371-134.97 119.236-134.97-119.236 33.898-38.371 101.071 89.289z" />
<glyph unicode="&#xe91b;" glyph-name="heart_fill" horiz-adv-x="1138" d="M579.040-64c0 0 778.319 555.171 497.731 899.061-249.486 305.772-497.731-45.908-497.731-45.908s-262.427 339.384-509.176 45.908c-309.415-368.008 509.176-899.061 509.176-899.061z" />
<glyph unicode="&#xe91c;" glyph-name="heart" horiz-adv-x="1138" d="M522.585 45.577c-66.233 49.419-132.46 103.993-194.082 161.973-136.009 127.972-229.215 253.472-260.386 365.439-23.765 85.363-10.515 159.089 45.29 225.462 12.113 14.407 24.308 27.152 36.563 38.298 99.609 90.59 202.42 75.588 309.609-9.453 20.457-16.23 39.094-33.72 55.415-51.164 9.596-10.256 16.084-17.954 19.041-21.778 23.405-30.268 69.416-29.266 91.48 1.992 2.774 3.93 8.892 11.857 17.97 22.418 15.428 17.949 33.105 35.939 52.564 52.614 114.951 98.501 223.758 106.071 336.642-32.281 57.484-70.453 62.661-155.502 20.514-259.099-40.731-100.117-123.283-210.342-235.212-323.325-59.545-60.105-123.526-117.111-187.512-169.067-18.922-15.364-36.682-29.335-52.949-41.772-16.875 11.798-35.307 25.088-54.948 39.743zM624.044 823.952l-16.921-0.368c-18.053-20.222-28.083-34.431-28.083-34.431s-10.58 13.682-29.488 33.177l-16.988-0.37c2.248 3.185 4.708 6.543 7.374 10.051-82.143 80.794-280.724 228.256-470.073 3.050-309.415-368.008 509.176-899.061 509.176-899.061s778.319 555.171 497.731 899.061c-191.398 234.579-382.066 82.215-460.477-1.452 2.798-3.371 5.383-6.597 7.75-9.657z" />
<glyph unicode="&#xe91d;" glyph-name="ivent" d="M153.6 806.4c-56.554 0-102.4-45.846-102.4-102.4v-614.4c0-56.554 45.846-102.4 102.4-102.4h716.8c56.554 0 102.4 45.846 102.4 102.4v614.4c0 56.554-45.846 102.4-102.4 102.4h-716.8zM153.6 857.6h716.8c84.831 0 153.6-68.769 153.6-153.6v-614.4c0-84.831-68.769-153.6-153.6-153.6h-716.8c-84.831 0-153.6 68.769-153.6 153.6v614.4c0 84.831 68.769 153.6 153.6 153.6zM230.4 960v-102.4h51.2v102.4zM486.4 960v-102.4h51.2v102.4zM742.4 960v-102.4h51.2v102.4zM230.4 806.4v-102.4h51.2v102.4zM486.4 806.4v-102.4h51.2v102.4zM742.4 806.4v-102.4h51.2v102.4zM512 257.595l-126.573-65.595 24.173 138.933-102.4 98.393 141.513 20.27 63.287 126.405 63.287-126.405 141.513-20.27-102.4-98.393 24.173-138.933z" />
<glyph unicode="&#xe91e;" glyph-name="job" horiz-adv-x="1078" d="M161.684 744.421c-59.53 0-107.789-48.259-107.789-107.789v-538.947c0-59.53 48.259-107.789 107.789-107.789h754.526c59.53 0 107.789 48.259 107.789 107.789v538.947c0 59.53-48.259 107.789-107.789 107.789h-754.526zM161.684 798.316h754.526c89.296 0 161.684-72.388 161.684-161.684v-538.947c0-89.296-72.388-161.684-161.684-161.684h-754.526c-89.296 0-161.684 72.388-161.684 161.684v538.947c0 89.296 72.388 161.684 161.684 161.684zM512 609.684v-485.053h53.895v485.053zM296.421 340.211h485.053v53.895h-485.053zM296.248 906.105h485.225v-107.789h53.895v161.684h-592.627v-161.684h53.507z" />
<glyph unicode="&#xe91f;" glyph-name="key" horiz-adv-x="999" d="M841.704 183.891l76.51 73.885c9.922 9.582 10.198 25.393 0.616 35.315l-34.699 35.932c-9.582 9.922-25.393 10.198-35.315 0.616l-76.51-73.885-244.125 252.798 8.691 16.079c51.314 94.929 35.998 213.379-40.15 292.233-95.819 99.223-253.931 101.983-353.155 6.164s-101.983-253.931-6.164-353.155c67.955-70.369 169.584-93.926 260.553-62.867l15.015 5.126 397.813-411.947c9.582-9.922 25.393-10.198 35.315-0.616l71.864 69.398c9.922 9.582 10.198 25.393 0.616 35.315l-76.876 79.607zM912.335 182.658l42.177-43.675c28.746-29.767 27.918-77.201-1.849-105.946l-71.864-69.398c-29.767-28.746-77.201-27.918-105.946 1.849l-376.1 389.463c-105.072-29.716-219.55-0.268-297.281 80.225-114.982 119.068-111.671 308.803 7.397 423.786s308.803 111.671 423.786-7.397c87.013-90.104 107.832-223.277 56.438-334.177l184.447-191 40.578 39.186c29.767 28.746 77.201 27.918 105.946-1.849l34.699-35.932c28.746-29.767 27.918-77.201-1.849-105.946l-40.578-39.186zM320.094 712.645c-0.806-46.186-38.727-82.976-84.699-82.174s-82.586 38.894-81.78 85.079c0.806 46.186 38.727 82.976 84.699 82.174s82.586-38.894 81.78-85.079z" />
<glyph unicode="&#xe920;" glyph-name="konsilium" horiz-adv-x="1078" d="M134.737 906.105c-44.648 0-80.842-36.194-80.842-80.842v-519.055c0-3.489 0.243-6.975 0.728-10.43 5.76-41.041 43.7-69.641 84.741-63.88l3.727 0.523h126.382v-201.495c0-6.433 2.301-12.653 6.487-17.537 9.685-11.3 26.697-12.608 37.997-2.923l258.947 221.955h370.253c44.648 0 80.842 36.194 80.842 80.842v512c0 44.648-36.194 80.842-80.842 80.842h-808.421zM134.737 960h808.421c74.413 0 134.737-60.324 134.737-134.737v-512c0-74.413-60.324-134.737-134.737-134.737h-350.316l-243.81-208.98c-33.899-29.056-84.935-25.131-113.991 8.769-12.559 14.652-19.462 33.313-19.462 52.611v147.6h-68.724c-70.517-9.898-135.706 39.244-145.604 109.76-0.833 5.937-1.252 11.926-1.252 17.922v519.055c0 74.413 60.324 134.737 134.737 134.737zM350.316 555.789c0-44.648-36.194-80.842-80.842-80.842s-80.842 36.194-80.842 80.842c0 44.648 36.194 80.842 80.842 80.842s80.842-36.194 80.842-80.842zM619.789 555.789c0-44.648-36.194-80.842-80.842-80.842s-80.842 36.194-80.842 80.842c0 44.648 36.194 80.842 80.842 80.842s80.842-36.194 80.842-80.842zM889.263 555.789c0-44.648-36.194-80.842-80.842-80.842s-80.842 36.194-80.842 80.842c0 44.648 36.194 80.842 80.842 80.842s80.842-36.194 80.842-80.842z" />
<glyph unicode="&#xe921;" glyph-name="lecture" horiz-adv-x="1365" d="M217.705 843.202c-45.43 0-82.26-36.829-82.26-82.26v-625.885c0-45.43 36.829-82.26 82.26-82.26h929.88c45.43 0 82.26 36.829 82.26 82.26v625.885c0 45.43-36.829 82.26-82.26 82.26h-929.88zM217.705 904h929.88c79.010 0 143.057-64.047 143.057-143.057v-625.885c0-79.010-64.047-143.057-143.057-143.057h-929.88c-79.010 0-143.057 64.047-143.057 143.057v625.885c0 79.010 64.047 143.057 143.057 143.057zM824 396.376l-177.925-110.703c-26.086-16.23-60.393-8.239-76.63 17.848-5.49 8.819-8.399 19.004-8.399 29.388v230.165c0 30.726 24.908 55.634 55.634 55.634 10.389 0 20.567-2.908 29.385-8.397l177.925-110.69c28.513-17.739 37.249-55.23 19.51-83.743-4.924-7.909-11.598-14.584-19.507-19.508z" />
<glyph unicode="&#xe922;" glyph-name="like_fill" horiz-adv-x="1144" d="M60.235 568.471h180.706c33.267 0 60.235-26.968 60.235-60.235v-481.882c0-33.267-26.968-60.235-60.235-60.235h-180.706c-33.267 0-60.235 26.968-60.235 60.235v481.882c0 33.267 26.968 60.235 60.235 60.235zM752.793 594.233l292.613 4.443c49.895 0.758 90.957-39.076 91.714-88.971 0.071-4.654-0.218-9.306-0.865-13.916l-63.611-453.743c-6.255-44.618-44.424-77.809-89.478-77.809h-465.929c-69.427 0-125.708 56.282-125.708 125.708v306.73c0 18.040 2.452 35.515 7.042 52.106 0.039 27.443-0.089 41.142-0.384 41.097-1.184-0.181 29.895 67.637 51.98 119.001 36.048 83.837 162.719 141.033 198.696 190.499 13.476 18.528 23.551 51.228 30.227 98.101h-0.001c5.507 38.667 41.317 65.549 79.985 60.042 31.306-4.459 55.848-29.159 60.105-60.494 0 0 0 0 0 0 13.458-99.066 4.259-173.398-66.386-302.796z" />
<glyph unicode="&#xe923;" glyph-name="link_external" d="M153.6 806.4c-84.831 0-153.6-68.769-153.6-153.6v-563.2c0-84.831 68.769-153.6 153.6-153.6h563.2c84.831 0 153.6 68.769 153.6 153.6v281.6h-51.2v-281.6c0-56.554-45.846-102.4-102.4-102.4h-563.2c-56.554 0-102.4 45.846-102.4 102.4v563.2c0 56.554 45.846 102.4 102.4 102.4h281.6v51.2h-281.6zM417.98 441.342l34.441-37.885 563.2 512c17.314 15.74 6.179 44.542-17.22 44.542h-358.747v-51.2h292.529l-514.203-467.458zM1024 576v384h-51.2v-384z" />
<glyph unicode="&#xe924;" glyph-name="location" horiz-adv-x="780" d="M665.89 386.11c104.629 152.337 65.954 360.649-86.383 465.278-55.756 38.294-121.808 58.793-189.448 58.793-184.834 0-334.672-149.838-334.672-334.672 0-67.666 20.511-133.742 58.828-189.514l255.74-372.241c7.625-11.098 22.803-13.914 33.901-6.289 2.465 1.694 4.598 3.827 6.291 6.292l255.742 372.353zM450.342-13.85c-5.080-7.396-11.478-13.795-18.873-18.876-33.295-22.875-78.83-14.427-101.704 18.868l-255.74 372.241c-43.9 63.898-67.399 139.601-67.399 217.126 0 211.765 171.669 383.434 383.434 383.434 77.497 0 153.174-23.486 217.054-67.36 174.536-119.876 218.846-358.543 98.97-533.079l-255.742-372.354zM390.095 472.381c-80.791 0-146.286 65.494-146.286 146.286s65.494 146.286 146.286 146.286c80.791 0 146.286-65.494 146.286-146.286s-65.494-146.286-146.286-146.286zM390.095 521.143c53.861 0 97.524 43.663 97.524 97.524s-43.663 97.524-97.524 97.524c-53.861 0-97.524-43.663-97.524-97.524s43.663-97.524 97.524-97.524z" />
<glyph unicode="&#xe925;" glyph-name="locked_fill" horiz-adv-x="799" d="M701.824 583.328h-52.535v130.076c-0.081 148.855-93.692 246.674-249.679 246.597s-249.973-97.731-249.892-246.597v-130.076l-52.52-0.289c-53.659-0.022-96.942-48.139-96.907-99.344l-0.291-430.752c0.023-51.205 43.551-92.698 97.21-92.665l604.614 0.289c53.659 0.022 97.14 41.559 97.105 92.765l0.291 430.752c-0.023 51.205-43.737 99.267-97.396 99.245zM424.734 249.458l0.478-115.435h-49.99l-0.469 115.435c-28.536 9.531-49.776 37.116-49.789 66.141-0.027 37.283 33.55 69.35 74.927 69.362 41.377 0.025 74.913-32.018 74.927-69.301 0.014-29.013-21.563-56.648-50.085-66.203zM574.405 583.927h-349.287v116.049c-0.045 93.986 78.605 183.479 174.042 183.523s175.201-89.537 175.246-183.523v-116.049z" />
<glyph unicode="&#xe926;" glyph-name="options_fill" horiz-adv-x="256" d="M256 832c0-70.692-57.308-128-128-128s-128 57.308-128 128c0 70.692 57.308 128 128 128s128-57.308 128-128zM256 448c0-70.692-57.308-128-128-128s-128 57.308-128 128c0 70.692 57.308 128 128 128s128-57.308 128-128zM256 64c0-70.692-57.308-128-128-128s-128 57.308-128 128c0 70.692 57.308 128 128 128s128-57.308 128-128z" />
<glyph unicode="&#xe927;" glyph-name="pencil_fill" horiz-adv-x="998" d="M880.894 613.978l-657.841-653.6h-221.356v212.605l661.974 658.218zM963.221 697.853l-47.672-47.672-217.223 217.223 47.672 47.672c43.653 43.653 114.43 43.653 158.083 0l59.14-59.14c43.653-43.653 43.653-114.43 0-158.083z" />
<glyph unicode="&#xe928;" glyph-name="pencil" horiz-adv-x="1057" d="M818.757 620.93l-601.271-607.563h-133.61v108.8l618.188 616.272 116.693-117.509zM702.299 831.959l-684.488-682.367v-202.289h227.241l666.73 673.707-209.483 210.949zM1008.373 712.744l-46.715-46.715-210.216 210.216 46.715 46.715c38.7 38.7 101.444 38.7 140.144 0l70.072-70.072c38.7-38.7 38.7-101.444 0-140.144z" />
<glyph unicode="&#xe929;" glyph-name="photo" d="M256 523.485v-196.625c0-31.231 25.158-56.632 56.387-56.932l9.733-0.099 209.844 1.131h179.102c31.444 0 56.934 25.49 56.934 56.934v195.591c0 31.444-25.49 56.934-56.934 56.934h-72.682l-20.611 65.226c-1.346 4.259-5.297 7.155-9.764 7.155h-192.352c-4.411 0-8.326-2.825-9.717-7.010l-21.726-65.371h-71.279c-31.444 0-56.934-25.49-56.934-56.934zM347.276 631.619l10.077 30.319c8.347 25.115 31.839 42.062 58.304 42.062h192.352c26.801 0 50.51-17.372 58.585-42.928l9.307-29.453h35.166c59.721 0 108.134-48.413 108.134-108.134v-195.591c0-59.721-48.413-108.134-108.134-108.134h-179.102l-220.069-1.029c-59.313 0.57-107.095 48.814-107.095 108.129v196.625c0 59.721 48.413 108.134 108.134 108.134h34.342zM512 313.6c-70.633 0-128 56.77-128 126.933s57.367 126.933 128 126.933c70.633 0 128-56.77 128-126.933s-57.367-126.933-128-126.933zM512 364.8c42.475 0 76.8 33.967 76.8 75.733s-34.325 75.733-76.8 75.733c-42.475 0-76.8-33.967-76.8-75.733s34.325-75.733 76.8-75.733zM512-12.8c254.493 0 460.8 206.307 460.8 460.8s-206.307 460.8-460.8 460.8c-254.493 0-460.8-206.307-460.8-460.8s206.307-460.8 460.8-460.8zM512-64c-282.77 0-512 229.23-512 512s229.23 512 512 512c282.77 0 512-229.23 512-512s-229.23-512-512-512z" />
<glyph unicode="&#xe92a;" glyph-name="play" d="M512-12.8c254.493 0 460.8 206.307 460.8 460.8s-206.307 460.8-460.8 460.8c-254.493 0-460.8-206.307-460.8-460.8s206.307-460.8 460.8-460.8zM512-64c-282.77 0-512 229.23-512 512s229.23 512 512 512c282.77 0 512-229.23 512-512s-229.23-512-512-512zM630.914 388.024l-132.629-89.396c-26.053-17.561-61.409-10.676-78.97 15.377-6.332 9.395-9.715 20.467-9.715 31.796v178.784c0 31.419 25.47 56.889 56.889 56.889 11.329 0 22.4-3.382 31.794-9.714l132.629-89.387c26.054-17.559 32.94-52.915 15.381-78.969-4.089-6.068-9.311-11.289-15.378-15.379z" />
<glyph unicode="&#xe92b;" glyph-name="question" horiz-adv-x="1280" d="M192 896c-70.692 0-128-57.308-128-128v-640c0-70.692 57.308-128 128-128h896c70.692 0 128 57.308 128 128v640c0 70.692-57.308 128-128 128h-896zM192 960h896c106.039 0 192-85.961 192-192v-640c0-106.039-85.961-192-192-192h-896c-106.039 0-192 85.961-192 192v640c0 106.039 85.961 192 192 192zM576.693 319.751v32.638c0 17.067-0.266 34.171 6.987 48.251s16 25.813 26.24 35.2c10.24 9.387 20.48 18.453 30.72 27.2s18.987 18.56 26.24 29.44c7.253 10.88 10.88 22.507 10.88 34.88 0 14.933-5.973 27.52-17.92 37.76s-26.667 15.36-44.16 15.36c-23.467 0-46.080-8.96-67.84-26.88l-45.44 55.68c32.427 30.72 72.533 46.080 120.32 46.080 37.974 0 70.827-10.987 98.56-32.96s41.6-51.093 41.6-87.36c0-19.627-3.84-37.333-11.52-53.12s-17.067-28.8-28.16-39.040c-11.093-10.24-22.080-19.947-32.96-29.12s-20.16-19.307-27.84-30.4c-7.68-11.093-7.575-24.358-7.575-36.731v-26.878h-78.132zM576 192v96h96v-96h-96z" />
<glyph unicode="&#xe92c;" glyph-name="sad" d="M512-12.8c254.493 0 460.8 206.307 460.8 460.8s-206.307 460.8-460.8 460.8c-254.493 0-460.8-206.307-460.8-460.8s206.307-460.8 460.8-460.8zM512-64c-282.77 0-512 229.23-512 512s229.23 512 512 512c282.77 0 512-229.23 512-512s-229.23-512-512-512zM321.422 432.64c-53.726 0-97.28 43.554-97.28 97.28s43.554 97.28 97.28 97.28c53.726 0 97.28-43.554 97.28-97.28s-43.554-97.28-97.28-97.28zM321.422 483.84c25.449 0 46.080 20.631 46.080 46.080s-20.631 46.080-46.080 46.080c-25.449 0-46.080-20.631-46.080-46.080s20.631-46.080 46.080-46.080zM702.578 432.64c-53.726 0-97.28 43.554-97.28 97.28s43.554 97.28 97.28 97.28c53.726 0 97.28-43.554 97.28-97.28s-43.554-97.28-97.28-97.28zM702.578 483.84c25.449 0 46.080 20.631 46.080 46.080s-20.631 46.080-46.080 46.080c-25.449 0-46.080-20.631-46.080-46.080s20.631-46.080 46.080-46.080zM313.388 220.547c65.639 45.932 131.968 69.228 198.612 69.228 67.893 0 130.184-22.082 196.652-69.338l-29.667-41.729c-58.214 41.387-110.343 59.867-166.985 59.867-55.507 0-111.802-19.772-169.258-59.977l-29.354 41.949z" />
<glyph unicode="&#xe92d;" glyph-name="search" d="M409.6 192c197.939 0 358.4 160.461 358.4 358.4s-160.461 358.4-358.4 358.4c-197.939 0-358.4-160.461-358.4-358.4s160.461-358.4 358.4-358.4zM409.6 140.8c-226.216 0-409.6 183.384-409.6 409.6s183.384 409.6 409.6 409.6c226.216 0 409.6-183.384 409.6-409.6s-183.384-409.6-409.6-409.6zM675.004 252.483c45.806-46.054 147.571-149.049 305.294-308.985 9.997-9.997 26.206-9.997 36.204 0s9.997 26.206 0 36.204c-160.029 162.5-262.39 266.12-307.083 310.86-2.983 2.986-10.308-14.936-17.573-22.613-6.066-6.411-18.444-13.856-16.842-15.466z" />
<glyph unicode="&#xe92e;" glyph-name="secret_files" horiz-adv-x="1280" d="M180.224 671.398c-64.189 0-116.224-52.035-116.224-116.224v-438.95c0-64.189 52.035-116.224 116.224-116.224h919.552c64.189 0 116.224 52.035 116.224 116.224v663.552c0 64.189-52.035 116.224-116.224 116.224h-381.883c-22.394 0-43.533-10.344-57.274-28.028l-152.751-196.575h-327.644zM180.224 735.398h296.325l133.534 171.844c25.865 33.286 65.656 52.758 107.81 52.758h381.883c99.535 0 180.224-80.689 180.224-180.224v-663.552c0-99.535-80.689-180.224-180.224-180.224h-919.552c-99.535 0-180.224 80.689-180.224 180.224v438.95c0 99.535 80.689 180.224 180.224 180.224zM554.873 832.341h-374.058c-64.060 0-116.042-51.835-116.224-115.895l-0.485-171.52-64.106-37.544 0.592 209.245c0.281 99.336 80.887 179.715 180.223 179.715h483.339l-109.281-64zM554.873 832.341h-374.058c-64.060 0-116.042-51.835-116.224-115.895l-0.485-171.52-64.106-37.544 0.592 209.245c0.281 99.336 80.887 179.715 180.223 179.715h483.339l-109.281-64zM671.829 338.206v-146.206h-64.049l0.012 146.206c-36.561 12.224-63.775 47.604-63.792 84.832-0.035 47.818 42.986 88.947 96 88.963 53.014 0.032 95.982-41.065 96-88.884 0.018-37.211-27.627-72.655-64.171-84.911z" />
<glyph unicode="&#xe92f;" glyph-name="send_fill" d="M191.541 410.537h-1.066v46.985l-184.273 440.543c-8.029 19.194 1.023 41.263 20.217 49.292 10.152 4.246 21.653 3.842 31.482-1.108l941.875-474.334c5.529-2.785 10.075-6.746 13.487-11.426h2.316v-3.589c6.011-10.587 6.786-23.886 0.899-35.576-0.286-0.568-0.586-1.128-0.899-1.678v-9.108h-7.249c-2.717-2.498-5.804-4.6-9.174-6.22v0l-939.592-451.774c-18.751-9.016-41.26-1.124-50.276 17.627-4.802 9.987-4.963 21.583-0.441 31.7l182.694 408.668zM191.541 410.537h816.789c2.86 2.63 5.31 5.699 7.249 9.108v37.254c-0.702 1.236-1.474 2.434-2.316 3.589h-822.788v-2.966l10.669-25.505-9.602-21.48z" />
<glyph unicode="&#xe930;" glyph-name="send" horiz-adv-x="1000" d="M939.101 472.452c-194.089 95.997-339.785 168.467-437.089 217.41s-243.261 122.358-437.87 220.245c-2.766 1.391-6.002 1.504-8.858 0.308-5.4-2.262-7.944-8.472-5.683-13.872l184.876-424.091c473.236-1.754 708.111-1.754 704.624 0zM185.893 448.161l-181.269 429.545c-12.664 30.24 1.583 65.021 31.824 77.685 15.993 6.698 34.115 6.069 49.605-1.723l875.74-440.49c19.526-9.821 28.78-31.494 27.762-65.018h-803.662zM939.101 423.709c-194.089-95.997-339.785-168.467-437.089-217.41s-243.261-122.358-437.87-220.245c-2.766-1.391-6.002-1.504-8.858-0.308-5.4 2.262-7.944 8.472-5.683 13.872l184.876 424.091c473.236 1.754 708.111 1.754 704.624 0zM185.893 448l-181.269-429.545c-12.664-30.24 1.583-65.021 31.824-77.685 15.993-6.698 34.115-6.069 49.605 1.723l875.74 440.49c19.526 9.821 28.78 31.494 27.762 65.018h-803.662z" />
<glyph unicode="&#xe931;" glyph-name="settings" horiz-adv-x="1000" d="M779.168 762.787l44.305 27.907c36.712 23.124 85.219 12.109 108.343-24.603 0.292-0.467 19.222-31.96 56.788-94.478 21.943-36.519 10.779-83.872-25.166-106.743l-39.116-24.889c8.506-33.318 12.858-67.786 12.858-102.817 0-30.671-3.336-60.916-9.881-90.347l32.127-18.773c37.322-21.809 50.013-69.673 28.4-107.11l-54.179-93.841c-21.694-37.575-69.741-50.449-107.316-28.755-0.119 0.069-12.419 7.256-36.902 21.563-37.956-31.943-81.357-56.887-128.215-73.497l0.567-30.377c0.81-43.38-33.7-79.204-77.081-80.014-0.489-0.008-42.826-0.012-127.012-0.014-43.388 0-78.561 35.173-78.561 78.561v33.676c-43.485 16.059-83.896 39.33-119.62 68.728l-32.31-20.558c-36.088-22.962-83.914-12.834-107.596 22.786l-62.33 93.754c-24.021 36.132-14.204 84.895 21.927 108.916 0.539 0.355 13.536 8.551 38.991 24.588-6.599 29.546-9.962 59.915-9.962 90.713 0 25.93 2.384 51.561 7.080 76.661l-56.694 33.129c-37.322 21.809-50.013 69.673-28.4 107.11l54.179 93.841c21.694 37.575 69.741 50.449 107.316 28.755 0.119-0.069 18.031-10.536 53.738-31.401 39.004 35.123 84.346 62.613 133.679 80.831v55.348c0 43.388 35.173 78.561 78.561 78.561h109.362c42.816 0 77.748-34.286 78.547-77.094l0.935-50.086c48.2-15.071 93.105-38.856 132.636-70.032zM596.844 881.995c-0.303 16.238-13.553 29.243-29.794 29.243h-109.362c-16.457 0-29.799-13.341-29.799-29.799v-90.514l-16.939-5.43c-54.574-17.494-104.188-47.676-144.949-87.849l-13.296-13.105-85.242 49.811c-14.388 8.307-32.612 3.424-40.841-10.829l-54.179-93.841c-8.198-14.2-3.385-32.355 10.772-40.628l87.381-51.061-4.079-17.511c-6.31-27.090-9.528-54.986-9.528-83.319 0-32.649 4.272-64.709 12.618-95.61l4.696-17.388-67.492-42.512c-14.321-9.51-18.045-28.007-8.933-41.712l62.33-93.754c8.983-13.511 27.124-17.353 40.812-8.643l63.219 40.225 13.77-12.406c38.389-34.585 83.661-60.737 132.941-76.534l16.939-5.43v-68.842c0-16.458 13.341-29.799 29.799-29.799h125.546c17.011 0.312 30.101 13.901 29.794 30.355l-1.247 66.77 17.618 5.365c52.384 15.951 100.4 43.549 140.651 80.527l13.255 12.177 67.272-39.31c14.388-8.307 32.612-3.424 40.841 10.829l54.179 93.841c8.198 14.2 3.385 32.355-10.772 40.628l-63.962 37.376 4.876 18.009c8.386 30.97 12.679 63.107 12.679 95.835 0 36.544-5.353 72.342-15.768 106.584l-5.39 17.721 70.001 44.541c13.634 8.675 17.869 26.637 9.546 40.489l-55.922 93.070c-9.1 14.46-27.499 18.638-41.424 9.866l-74.465-46.904-13.657 11.771c-41.895 36.11-91.422 62.351-145.068 76.504l-17.813 4.7-1.615 86.49zM520.127 244.825c-107.722 0-195.048 87.326-195.048 195.048s87.326 195.048 195.048 195.048c107.722 0 195.048-87.326 195.048-195.048s-87.326-195.048-195.048-195.048zM520.127 293.587c80.791 0 146.286 65.494 146.286 146.286s-65.494 146.286-146.286 146.286c-80.791 0-146.286-65.494-146.286-146.286s65.494-146.286 146.286-146.286z" />
<glyph unicode="&#xe932;" glyph-name="share" horiz-adv-x="870" d="M355.029 490.165c2.234-11.359 3.371-22.981 3.371-34.746 0-8.83-0.641-17.582-1.906-26.206l235.515-135.919c24.249 11.874 51.040 18.172 78.711 18.172 98.969 0 179.2-80.231 179.2-179.2s-80.231-179.2-179.2-179.2c-98.969 0-179.2 80.231-179.2 179.2 0 5.605 0.258 11.18 0.771 16.712l-240.269 142.661c-22.688-10.102-47.39-15.421-72.822-15.421-98.969 0-179.2 80.231-179.2 179.2s80.231 179.2 179.2 179.2c22.171 0 43.803-4.041 64.053-11.794l248.74 144.869c-0.315 4.346-0.473 8.717-0.473 13.105 0 98.969 80.231 179.2 179.2 179.2s179.2-80.231 179.2-179.2c0-98.969-80.231-179.2-179.2-179.2-29.881 0-58.717 7.346-84.409 21.089l-231.282-132.524zM600.572 673.713c20.677-13.577 44.835-20.913 70.148-20.913 70.692 0 128 57.308 128 128s-57.308 128-128 128c-70.692 0-128-57.308-128-128 0-7.551 0.651-15.008 1.935-22.318l3.085-17.571-301.494-175.594-12.199 5.795c-16.979 8.066-35.586 12.306-54.847 12.306-70.692 0-128-57.308-128-128s57.308-128 128-128c21.869 0 42.888 5.47 61.595 15.762l12.824 7.056 295.057-175.192-3.514-17.748c-1.619-8.174-2.441-16.542-2.441-25.031 0-70.692 57.308-128 128-128s128 57.308 128 128c0 70.692-57.308 128-128 128-23.58 0-46.165-6.362-65.897-18.239l-12.929-7.782-293.868 169.595 4.974 18.911c2.778 10.562 4.2 21.509 4.2 32.668 0 13.555-2.098 26.794-6.17 39.397l-6.384 19.759 292.786 167.765 13.14-8.628z" />
<glyph unicode="&#xe933;" glyph-name="soc_fb_fill" d="M512-64c-282.77 0-512 229.23-512 512s229.23 512 512 512c282.77 0 512-229.23 512-512s-229.23-512-512-512zM623.114 703.894l-65.977 0.106c-74.123 0-122.025-49.457-122.025-126.004v-58.096h-66.337c-5.732 0-10.374-4.677-10.374-10.445v-84.175c0-5.769 4.647-10.44 10.374-10.44h66.337v-212.4c0-5.769 4.642-10.44 10.374-10.44h86.551c5.732 0 10.374 4.677 10.374 10.44v212.4h77.564c5.732 0 10.374 4.671 10.374 10.44l0.032 84.175c0 2.77-1.096 5.422-3.038 7.383s-4.589 3.063-7.341 3.063h-77.59v49.249c0 23.671 5.605 35.688 36.247 35.688l44.445 0.016c5.727 0 10.369 4.677 10.369 10.44v78.161c0 5.758-4.637 10.429-10.358 10.44z" />
<glyph unicode="&#xe934;" glyph-name="soc_fb" horiz-adv-x="591" d="M142.295 701.778c0 155.298 100.153 258.222 251.99 258.222l122.384-0.197c24.747-0.046 44.773-20.131 44.773-44.874v-144.297c0-24.767-20.061-44.874-44.825-44.874l-82.452-0.030c-37.351 0-41.635-4.86-41.635-40.285v-65.321h118.325c11.913 0 23.351-4.747 31.758-13.191 8.38-8.416 13.095-19.808 13.095-31.702l-0.059-155.39c0-24.779-20.063-44.874-44.844-44.874h-118.276v-366.523c0-24.771-20.064-44.874-44.844-44.874h-160.547c-24.781 0-44.844 20.094-44.844 44.874v366.523h-97.451c-24.772 0-44.844 20.096-44.844 44.874v155.399c0 24.777 20.061 44.884 44.844 44.884h97.451v81.655zM394.244 908.8c-123.201 0-200.749-79.694-200.749-207.022v-132.855h-142.295v-142.757h142.295v-411.397h147.834v411.397h163.122l0.054 142.757h-163.176v116.521c0 62.365 25.669 91.485 92.826 91.485l76.086 0.027v131.658l-115.998 0.186z" />
<glyph unicode="&#xe935;" glyph-name="soc_google_fill" d="M512-64c-282.77 0-512 229.23-512 512s229.23 512 512 512c282.77 0 512-229.23 512-512s-229.23-512-512-512zM709.484 531.2v-75.428h-82.284v-60.346h82.284v-75.426h65.832v75.426h82.284v60.346h-82.284v75.428h-65.832zM393.879 623.152c-73.166 0-136.536-41.336-167.828-101.695-0.126-0.243-0.276-0.473-0.402-0.718l0.041-0.030c-13.056-25.43-20.475-54.182-20.475-84.672 0-29.933 7.139-58.198 19.75-83.283l0.041 0.030c30.9-61.495 94.916-103.764 168.925-103.764 49.405 0 94.353 18.851 127.984 49.662l-0.041 0.030c37.279 34.166 60.652 83.031 60.652 137.329-0.031 11.767-1.192 23.476-3.448 35.029h-182.18v-70.209h105.413c-7.598-23.067-22.183-42.348-40.911-55.821-18.432-13.25-40.854-20.895-64.639-20.915-49.898 0-92.124 32.997-106.275 78.466l-0.041-0.030c-3.295 10.574-5.085 21.813-5.085 33.48 0 12.959 2.23 25.389 6.26 36.966 15.169 43.682 56.46 75.046 105.089 75.046 26.937-0.030 52.954-9.872 73.221-27.708l53.5 51.589c-34.998 32.853-81.353 51.181-129.552 51.221v0z" />
<glyph unicode="&#xe936;" glyph-name="soc_ok_fill" d="M512-64c-282.77 0-512 229.23-512 512s229.23 512 512 512c282.77 0 512-229.23 512-512s-229.23-512-512-512zM668.883 427.128c-8.106 16.165-30.556 29.614-60.39 6.275-40.324-31.548-105.095-31.548-105.095-31.548s-64.771 0-105.097 31.548c-29.834 23.339-52.281 9.89-60.387-6.275-14.13-28.185 1.835-41.808 37.863-64.771 30.772-19.616 73.055-26.942 100.36-29.682l-22.79-22.631c-32.106-31.875-63.097-62.647-84.598-83.997-12.857-12.76-12.857-33.457 0-46.223l3.879-3.851c12.857-12.763 33.697-12.76 46.554 0l84.598 83.997c32.106-31.875 63.095-62.647 84.595-83.995 12.854-12.763 33.699-12.763 46.554 0l3.879 3.851c12.857 12.766 12.854 33.46 0 46.223l-107.462 106.696c27.327 2.794 69.157 10.159 99.674 29.612 36.025 22.963 51.99 36.587 37.863 64.771zM503.398 657.186c39.007 0 70.63-31.398 70.63-70.126 0-38.73-31.623-70.126-70.63-70.126s-70.627 31.396-70.627 70.126c0 38.728 31.62 70.126 70.627 70.126zM503.398 444.521c79.285 0 143.561 63.818 143.561 142.54s-64.277 142.54-143.561 142.54c-79.287 0-143.561-63.818-143.561-142.54s64.274-142.54 143.561-142.54z" />
<glyph unicode="&#xe937;" glyph-name="soc_ok" horiz-adv-x="777" d="M155.841 285.123c-81.147 51.607-102.634 82.83-73.483 140.846 24.326 48.405 82.367 62.195 138.383 18.471 15.703-12.261 35.048-22.259 57.259-30.096 24.077-8.496 50.147-14.014 76.262-17.086 15.652-1.841 27.696-2.448 34.243-2.448s18.59 0.606 34.241 2.448c26.111 3.071 52.178 8.589 76.258 17.085 22.213 7.836 41.555 17.838 57.262 30.098 56.016 43.725 114.061 29.935 138.387-18.472 29.143-58.018 7.658-89.237-73.482-140.845-37.345-23.752-84.296-39.141-136.043-48.174l153.27-151.846c31.121-30.833 31.123-80.909 0-111.744l-6.705-6.642c-31.003-30.716-81.191-30.716-112.193 0-29.921 29.643-29.921 29.643-66.229 65.616-29.818 29.543-46.695 46.261-64.106 63.509l-130.344-129.135c-31.009-30.708-81.181-30.71-112.19 0.003l-6.705 6.642c-31.124 30.837-31.124 80.92-0.001 111.743 37.16 36.819 90.723 89.883 146.209 144.851l6.861 6.798c-52.146 8.999-99.52 24.437-137.152 48.374zM357.258 236.944l-39.387-39.028c-55.486-54.967-109.048-108.032-146.211-144.854-13.312-13.183-13.312-34.482 0.003-47.674l6.703-6.64c13.432-13.305 35.29-13.304 48.721-0.002l162.073 160.572 15.868-15.72c24.462-24.234 41.373-40.988 79.975-79.232 36.309-35.973 36.309-35.973 66.229-65.615 13.429-13.304 35.292-13.304 48.719 0l6.705 6.642c13.314 13.191 13.313 34.487 0 47.678l-217.501 215.479-31.896-31.606zM584.007 408.894c-19.87-15.512-43.478-27.717-70.005-37.075-27.546-9.72-56.791-15.911-85.993-19.345-17.535-2.063-31.304-2.757-39.508-2.757s-21.973 0.695-39.51 2.757c-29.201 3.436-58.446 9.626-85.998 19.346-26.523 9.359-50.13 21.563-70.002 37.072-33.381 26.055-58.678 20.045-70.345-3.171-14.871-29.596-6.311-42.037 57.392-82.55 41.227-26.223 99.817-41.391 163.593-47.778l47.616-4.766-2.097-2.076-2.136 2.117 47.495 4.847c63.413 6.47 121.509 21.618 162.45 47.66 63.695 40.512 72.258 52.952 57.392 82.55-11.668 23.216-36.971 29.227-70.348 3.172zM388.502 790.028c-55.010 0-99.515-44.096-99.515-98.384s44.506-98.384 99.515-98.384c55.012 0 99.52 44.095 99.52 98.384 0 54.285-44.51 98.384-99.52 98.384zM388.502 835.122c79.818 0 144.613-64.192 144.613-143.477 0-79.288-64.792-143.477-144.613-143.477s-144.609 64.188-144.609 143.477c0 79.286 64.79 143.477 144.609 143.477zM388.502 423.292c-149.434 0-270.657 120.1-270.657 268.353s121.224 268.353 270.657 268.353c149.431 0 270.657-120.102 270.657-268.353s-121.227-268.353-270.657-268.353zM388.502 468.386c124.619 0 225.564 100.008 225.564 223.259s-100.945 223.259-225.564 223.259c-124.622 0-225.564-100.005-225.564-223.259s100.942-223.259 225.564-223.259z" />
<glyph unicode="&#xe938;" glyph-name="soc_tw_fill" d="M512-64c-282.77 0-512 229.23-512 512s229.23 512 512 512c282.77 0 512-229.23 512-512s-229.23-512-512-512zM813.959 623.852c-20.524-9.251-42.589-15.506-65.746-18.319 23.636 14.397 41.786 37.192 50.336 64.357-22.127-13.331-46.624-23.011-72.696-28.224-20.885 22.602-50.635 36.733-83.555 36.733-63.224 0-114.478-52.085-114.478-116.33 0-9.114 1.013-17.994 2.969-26.507-95.135 4.85-179.486 51.164-235.939 121.548-9.862-17.185-15.509-37.167-15.509-58.49 0-40.355 20.208-75.959 50.926-96.824-18.765 0.609-36.414 5.842-51.845 14.548-0.008-0.484-0.008-0.967-0.008-1.459 0-56.365 39.456-103.379 91.818-114.063-9.6-2.663-19.712-4.088-30.152-4.088-7.381 0-14.553 0.733-21.541 2.092 14.57-46.214 56.839-79.851 106.933-80.789-39.178-31.199-88.533-49.797-142.17-49.797-9.235 0-18.346 0.55-27.302 1.634 50.659-33.012 110.832-52.273 175.471-52.273 210.56 0 325.703 177.263 325.703 330.985 0 5.047-0.115 10.060-0.332 15.048 22.365 16.406 41.773 36.896 57.118 60.22z" />
<glyph unicode="&#xe939;" glyph-name="soc_tw" horiz-adv-x="1350" d="M1187.373 786.203l84.418 37.868-51.023-77.186c-26.363-39.886-59.050-75.312-96.457-104.57 0.097-4.531 0.146-9.045 0.146-13.546 0-324.862-249.71-611.388-604.794-611.388-117.030 0-229.242 33.9-325.974 96.639l-97.211 63.044 115.036-13.853c14.876-1.794 29.973-2.69 45.234-2.69 64.673 0 126.853 16.273 182.002 46.54-68.047 23.373-122.614 78.19-145.076 149.113l-13.636 43.059 18.246-3.529c-47.561 42.843-77.061 105.146-77.061 173.551 0 1.369 0 1.369 0.021 3.032l0.766 44.99 32.826-18.431c-20.551 35.107-31.963 75.738-31.963 118.289 0 41.544 10.836 81.553 31.112 116.709l19.58 33.957 24.594-30.519c91.138-113.092 222.009-185.954 366.245-202.027-0.415 5.737-0.625 11.52-0.625 17.332 0 128.224 102.905 232.302 229.989 232.302 59.12 0 114.792-22.694 156.913-62.35 37.571 8.968 73.431 23.649 106.53 43.501l60.786 36.448-21.373-67.577c-6.279-19.857-15.166-38.62-26.291-55.845 5.732 2.24 11.416 4.619 17.034 7.144zM1084.928 702.687l-123.666-14.953 106.519 64.581c13.857 8.401 26.437 18.628 37.43 30.323-18.864-6.598-38.217-11.888-57.947-15.813l-14.715-2.928-10.206 10.994c-33.119 35.676-79.255 56.287-128.584 56.287-97.282 0-176.275-79.893-176.275-178.59 0-13.965 1.544-27.625 4.578-40.773l8-34.663-35.534 1.8c-157.99 8.017-303.846 77.806-409.86 191.875-5.336-17.158-8.104-35.211-8.104-53.693 0-60.499 29.861-115.831 78.549-148.745l77.054-52.089-92.964 3.002c-20.496 0.661-40.584 4.066-59.842 10.018 15.264-67.518 68.418-121.259 136.971-135.179l109.994-22.337-108.188-29.868c-18.069-4.99-36.772-7.735-55.787-8.137 30.818-50.929 85.77-84.18 147.158-85.328l74.856-1.396-58.671-46.502c-60.901-48.268-133.125-79.28-210.158-89.776 64.192-26.020 133.166-39.692 204.121-39.692 323.65 0 551.082 260.964 551.082 557.676 0 8.39-0.192 16.845-0.565 25.401l-0.632 14.378 11.625 8.489c13.055 9.534 25.515 19.907 37.292 31.038-11.065-2.229-22.253-4.025-33.544-5.394z" />
<glyph unicode="&#xe93a;" glyph-name="soc_vk_fill" d="M512-64c-282.77 0-512 229.23-512 512s229.23 512 512 512c282.77 0 512-229.23 512-512s-229.23-512-512-512zM488.423 270.196h34.648c0 0 10.463 1.16 15.814 6.953 4.917 5.324 4.76 15.316 4.76 15.316s-0.678 46.786 20.896 53.676c21.276 6.791 48.59-45.217 77.539-65.216 21.893-15.129 38.529-11.818 38.529-11.818l77.415 1.089c0 0 40.495 2.514 21.292 34.555-1.572 2.617-11.186 23.701-57.562 67.020-48.545 45.34-42.038 38.004 16.434 116.431 35.61 47.762 49.844 76.919 45.396 89.406-4.238 11.898-30.431 8.755-30.431 8.755l-87.162-0.542c0 0-6.467 0.885-11.256-1.999-4.685-2.82-7.691-9.41-7.691-9.41s-13.801-36.957-32.193-68.392c-38.813-66.321-54.334-69.832-60.679-65.707-14.76 9.599-11.072 38.555-11.072 59.132 0 64.275 9.688 91.074-18.865 98.011-9.473 2.301-16.453 3.823-40.684 4.071-31.103 0.318-57.421-0.097-72.326-7.444-9.916-4.887-17.567-15.774-12.905-16.401 5.762-0.772 18.806-3.543 25.722-13.013 8.935-12.232 8.622-39.693 8.622-39.693s5.134-75.662-11.986-85.057c-11.747-6.446-27.865 6.713-62.469 66.884-17.726 30.821-31.115 64.893-31.115 64.893s-2.578 6.366-7.183 9.774c-5.585 4.129-13.389 5.437-13.389 5.437l-82.83-0.545c0 0-12.431-0.349-17-5.791-4.064-4.844-0.325-14.85-0.325-14.85s64.843-152.671 138.271-229.608c67.335-70.549 143.782-65.918 143.782-65.918z" />
<glyph unicode="&#xe93b;" glyph-name="soc_vk" horiz-adv-x="1039" d="M746.020 168.496c-17.036 11.714-31.757 26.477-54.985 53.016-36.195 41.354-49.897 53.357-52.286 52.592-3.465-1.099-8.693-9.653-12.333-25.068-3.309-13.994-4.428-28.824-4.351-39.098 0.059-6.938-0.824-15.25-3.73-24.131-2.426-7.406-6.024-14.13-11.33-19.839-5.412-5.833-11.989-10.15-19.365-13.429-8.886-3.925-17.227-5.78-23.651-6.483l-59.513-0.109c-21.242-0.684-48.041 1.776-79.822 9.886-49.221 12.53-97.982 35.883-143.396 72.572-13.445 10.87-26.444 22.804-38.945 35.837-39.060 40.725-78.558 95.274-118.014 160.379-30.692 50.648-59.631 104.797-85.968 158.93-9.213 18.948-17.453 36.533-24.603 52.34-4.306 9.538-7.324 16.386-9.347 21.2-0.671 1.774-1.466 4.255-2.226 7.317-1.359 5.485-2.171 11.099-2.090 16.887 0.132 9.806 2.768 19.059 9.397 26.939 6.703 7.932 15.456 12.575 25.754 15.541 8.438 2.426 16.306 3.344 22.815 3.512l139.129 0.905 4.526-0.365c6.244-1.047 14.413-3.271 23.047-7.443 3.806-1.846 7.397-3.959 10.765-6.43 4.508-3.318 8.353-7.299 11.721-11.778 4.418-5.846 7.343-11.45 9.237-16.126 2.208-5.6 6.399-15.649 12.18-28.618 9.638-21.65 20.133-43.275 31.107-63.355 2.426-4.453 4.87-8.785 7.287-12.987 27.38-47.389 47.861-77.203 62.801-92.335 8.28-8.391 8.506-8.471 6.594-9.509-0.029-0.021 5.194 20.622 6.81 48.641 1.064 18.527 0.98 38.575 0.212 57.523-0.212 5.253-0.438 9.072-0.629 13.174 0.059 8.471-0.744 20.818-3.104 32.457-1.738 8.577-4.082 15.006-6.263 17.972-4.074 5.552-14.394 9.733-25.406 11.2-18.030 2.414-27.662 18.587-24.735 34.527 1.241 6.785 4.388 12.76 8.833 18.638 7.185 9.5 17.929 18.502 29.452 24.148 26.939 13.209 60.588 15.889 133.385 15.146 37.129-0.377 51.636-2.082 74.272-7.55 52.133-12.597 57.069-34.812 53.204-132.853-0.897-22.733-1.315-38.606-1.315-56.687 0-5.074-0.083-8.858-0.361-18.868-0.203-7.253-0.285-10.918-0.327-15.105-0.167-17.806 1.206-29.727 3.427-36.463 0.689 0.583 1.432 1.224 2.224 1.929 15.651 14.144 37.76 44.26 66.357 92.885 3.688 6.283 7.394 12.903 11.073 19.83 10.501 19.728 20.493 40.996 29.594 62.266 5.447 12.75 9.385 22.621 12.164 29.845 1.818 3.964 4.682 9.003 8.815 14.253 4.125 5.236 8.829 9.705 14.529 13.128 3.577 2.144 7.362 3.754 11.292 4.915 7.802 2.315 15.277 2.739 22.156 2.208 1.148-0.094 48.583 0.132 142.331 0.695 1.206 0.132 2.694 0.285 4.793 0.438 8.968 0.629 18.527 0.573 27.968-0.718 21.984-3.007 39.228-11.756 46.363-31.677 12.109-33.853-14.933-87.371-79.977-174.205-12.868-17.178-50.76-66.265-57.069-74.862-12.639-17.203-18.217-26.974-19.445-32.824-1.279-6.056 4.185-13.137 45.748-51.78 35.324-32.84 61.263-60.943 79.552-84.825 6.747-8.815 12.1-16.587 16.389-23.571 2.579-4.189 6.161-10.647 5.385-9.366 25.448-42.252 10.146-76.566-26.53-90.943-11.377-4.453-22.166-6.318-31.489-6.865l-128.418-1.797c-23.456-2.468-51.671 3.73-81.688 24.374zM568.275 201.914c-0.285-0.327-0.365-0.37-0.327-0.202 0.212 0.132 0.327 0.205 0.327 0.202zM566.242 200.866c1.728 0.954 1.776 1.126 1.864 1.381 0.782 2.418 1.126 5.565 1.108 7.053-0.104 14.394 1.294 33.015 5.767 51.904 7.515 31.719 21.701 54.966 47.736 63.259 35.615 11.312 47.954 0.518 108.038-68.154 20.393-23.299 32.918-35.866 45.172-44.292 19.116-13.145 34.75-16.587 45.136-15.503 0.205 0.021 1.623 0.164 4.255 0.403l128.777 1.776c3.044 0.187 8.93 1.206 14.207 3.271 8.165 3.191 7.821 2.432 0.562 14.488 0.094-0.147-3.352 6.062-5.158 8.996-3.344 5.437-7.661 11.714-13.323 19.097-16.402 21.409-40.338 47.357-73.587 78.252-59.058 54.902-68.651 67.351-61.463 101.385 3.271 15.465 11.641 30.151 28.545 53.169 6.777 9.232 44.872 58.595 57.375 75.266 52.366 69.897 75.652 115.991 72.517 124.738 1.377-3.841 0.629-3.462-3.796-2.857-5.293 0.723-11.427 0.765-17.065 0.365-1.212-0.093-2.162-0.174-5.228-0.378l-150.136-0.671c-3.080-1.768-4.032-3.424-3.535-2.182-2.32-6.199-6.537-16.792-12.333-30.342-9.653-22.565-20.248-45.136-31.535-66.328-4.032-7.561-8.085-14.834-12.172-21.777-61.998-105.439-102.643-142.183-139.044-118.626-25.486 16.497-31.726 43.241-31.333 87.54 0.044 4.609 0.132 8.506 0.33 16.075 0.254 9.497 0.327 13.017 0.327 17.419 0 18.906 0.433 35.401 1.359 58.763 2.795 70.772 1.652 75.916-12.83 79.415-18.6 4.491-29.157 5.725-62.404 6.062-46.363 0.476-74.958-0.697-93.317-4.519 5.534-4.147 10.574-9.121 14.933-15.064 7.575-10.316 12.333-23.345 15.461-38.754 3.134-15.503 4.17-30.74 4.147-42.421 0.167-2.541 0.365-6.447 0.584-11.488 0.855-20.536 0.935-42.205-0.247-62.728-2.812-48.73-10.469-78.988-34.229-91.972-42.004-22.932-77.828 13.376-140.462 121.782-2.653 4.575-5.294 9.282-7.923 14.108-11.721 21.464-22.815 44.333-32.994 67.188-6.102 13.717-10.574 24.454-12.941 30.457-0.213 0.544-1.175 2.379-2.388 3.965-1.45 1.474-2.279 1.971-3.316 2.468-2.418 1.168-5.074 2.032-6.999 2.512l-135.792-0.884c-1.015-0.022-2.608-0.174-4.38-0.438 1.611-3.694 4.057-9.236 7.282-16.378 6.951-15.376 14.979-32.518 23.972-51.002 25.674-52.783 53.86-105.542 83.64-154.665 37.607-62.078 75.002-113.697 110.966-151.198 10.953-11.415 22.309-21.841 34.013-31.298 39.24-31.694 81.103-51.749 123.234-62.471 26.668-6.785 48.581-8.815 63.107-8.353 0.438 0.021 19.923 0.038 58.442 0.059 1.776 0.327 4.571 1.049 7.018 2.124z" />
<glyph unicode="&#xe93c;" glyph-name="user_fill" horiz-adv-x="870" d="M435.042 422.4c435.546 0 435.358-486.4 435.358-486.4h-870.4c0 0-0.505 486.4 435.042 486.4zM665.6 729.6c0-127.246-103.154-230.4-230.4-230.4s-230.4 103.154-230.4 230.4c0 127.246 103.154 230.4 230.4 230.4s230.4-103.154 230.4-230.4z" />
<glyph unicode="&#xe93d;" glyph-name="videoteka" d="M128 908.8c-42.415 0-76.8-34.385-76.8-76.8v-512c0-42.415 34.385-76.8 76.8-76.8h768c42.415 0 76.8 34.385 76.8 76.8v512c0 42.415-34.385 76.8-76.8 76.8h-768zM128 960h768c70.692 0 128-57.308 128-128v-512c0-70.692-57.308-128-128-128h-768c-70.692 0-128 57.308-128 128v512c0 70.692 57.308 128 128 128zM631.030 532.525l-149.831-93.223c-21.969-13.669-50.86-6.94-64.528 15.029-4.622 7.428-7.071 16.001-7.071 24.75v193.823c0 25.874 20.975 46.85 46.85 46.85 8.748 0 17.32-2.449 24.748-7.070l149.831-93.213c24.010-14.937 31.365-46.51 16.428-70.52-4.144-6.662-9.764-12.282-16.426-16.427zM179.2 64h-179.2v-51.2h179.2v-38.4c0-21.208 17.192-38.4 38.4-38.4s38.4 17.192 38.4 38.4v0 38.4h768v51.2h-768v38.4c0 21.208-17.192 38.4-38.4 38.4s-38.4-17.192-38.4-38.4v0-38.4z" />
<glyph unicode="&#xe93e;" glyph-name="webinar" horiz-adv-x="1440" d="M720 63c211.995 0 383.9 172.342 383.9 385s-171.905 385-383.9 385c-211.995 0-383.9-172.342-383.9-385s171.905-385 383.9-385zM720 8c-242.4 0-438.9 196.992-438.9 440s196.5 440 438.9 440c242.4 0 438.9-196.992 438.9-440s-196.5-440-438.9-440zM239.326 795.090c-74.458-74.458-116.732-222.868-117.257-346.231-0.467-108.543 46.156-243.812 116.478-314.134l38.892 38.892c-59.031 59.031-100.781 180.162-100.37 275.012 0.469 110.251 38.964 245.383 101.149 307.577l-38.892 38.892zM1211.985 134.913c71.813 77.015 108.876 226.802 105.102 350.108-3.327 108.49-54.638 242.052-127.371 309.883l-37.51-40.228c61.053-56.934 107.003-176.535 109.91-271.343 3.379-110.201-30.375-246.593-90.351-310.918l40.228-37.51zM813.711 423.583l-110.165-89.262c-20.432-16.557-50.418-13.413-66.974 7.017-6.871 8.482-10.622 19.060-10.622 29.979v153.367c0 26.301 21.316 47.617 47.617 47.617 10.918 0 21.497-3.751 29.979-10.622l110.165-89.262c13.488-10.924 15.56-30.718 4.635-44.202-1.379-1.701-2.934-3.256-4.635-4.635z" />
<glyph unicode="&#xe93f;" glyph-name="write" horiz-adv-x="939" d="M28.444-64h910.222v56.889h-910.222zM705.040 668.023l-517.761-523.179h-115.053v93.689l532.328 530.679 100.485-101.189zM604.758 849.743l-589.42-587.594v-174.194h195.68l574.129 580.137-180.388 181.65zM868.321 747.085l-40.227-40.227-181.019 181.019 40.227 40.227c33.325 33.325 87.355 33.325 120.68 0l60.34-60.34c33.325-33.325 33.325-87.355 0-120.68z" />
<glyph unicode="&#xe940;" glyph-name="reg" d="M840.408 163.998l13.217 13.217c6.982 6.982 18.303 6.982 25.285 0l16.091-16.091c6.982-6.982 6.982-18.303 0-25.285l-13.217-13.217 13.217-13.217c6.982-6.982 6.982-18.303 0-25.285l-16.091-16.091c-6.982-6.982-18.303-6.982-25.285 0l-103.282 103.282c-30.633-17.125-70.085-12.667-96.126 13.374-31.42 31.42-31.42 82.363 0 113.784s82.363 31.42 113.784 0c22.109-22.109 28.661-53.883 19.657-81.72l52.751-52.751zM742.14 220.89c11.426 11.426 11.426 29.95 0 41.376s-29.95 11.426-41.376 0c-11.426-11.426-11.426-29.95 0-41.376s29.95-11.426 41.376 0zM870.4 421.062h-51.2v371.343c0 64.283-52.112 116.395-116.395 116.395h-530.559c-66.852 0-121.046-54.194-121.046-121.046v-525.909c0-66.852 54.194-121.046 121.046-121.046h377.713v-51.2h-377.713c-95.129 0-172.246 77.117-172.246 172.246v525.909c0 95.129 77.117 172.246 172.246 172.246h530.559c92.56 0 167.595-75.035 167.595-167.595v-371.343zM870.4 421.062h-51.2v371.343c0 64.283-52.112 116.395-116.395 116.395h-530.559c-66.852 0-121.046-54.194-121.046-121.046v-525.909c0-66.852 54.194-121.046 121.046-121.046h377.713v-51.2h-377.713c-95.129 0-172.246 77.117-172.246 172.246v525.909c0 95.129 77.117 172.246 172.246 172.246h530.559c92.56 0 167.595-75.035 167.595-167.595v-371.343zM435.2 448c-98.969 0-179.2 80.231-179.2 179.2s80.231 179.2 179.2 179.2c98.969 0 179.2-80.231 179.2-179.2s-80.231-179.2-179.2-179.2zM435.2 499.2c70.692 0 128 57.308 128 128s-57.308 128-128 128c-70.692 0-128-57.308-128-128s57.308-128 128-128zM764.835-9.635c113.108 0 204.8 91.692 204.8 204.8s-91.692 204.8-204.8 204.8c-113.108 0-204.8-91.692-204.8-204.8s91.692-204.8 204.8-204.8zM764.835-60.835c-141.385 0-256 114.615-256 256s114.615 256 256 256c141.385 0 256-114.615 256-256s-114.615-256-256-256zM435.2 371.2c42.476 0 77.795-5.596 109.133-20.356l18.75-9.91c7.149 9.095 13.036 16.413 17.659 21.954s9.276 11.968 13.959 19.28l-17.992 9.623c-40.118 21.080-85.543 30.609-141.509 30.609-159.575 0-258.103-84.456-297.021-255.402l-3.245-26.067h54.57v5.494c32.398 154.112 109.148 224.775 245.696 224.775z" />
<glyph unicode="&#xe941;" glyph-name="broken-heart" horiz-adv-x="1138" d="M522.585 45.577c-66.233 49.419-132.46 103.993-194.082 161.973-136.009 127.972-229.215 253.472-260.386 365.439-23.765 85.363-10.515 159.089 45.29 225.462 12.113 14.407 24.308 27.152 36.563 38.298 99.609 90.59 202.42 75.588 309.609-9.453 20.457-16.23 39.094-33.72 55.415-51.164 9.596-10.256 16.084-17.954 19.041-21.778 23.405-30.268 69.416-29.266 91.48 1.992 2.774 3.93 8.892 11.857 17.97 22.418 15.428 17.949 33.105 35.939 52.564 52.614 114.951 98.501 223.758 106.071 336.642-32.281 57.484-70.453 62.661-155.502 20.514-259.099-40.731-100.117-123.283-210.342-235.212-323.325-59.545-60.105-123.526-117.111-187.512-169.067-18.922-15.364-36.682-29.335-52.949-41.772-16.875 11.798-35.307 25.088-54.948 39.743zM624.044 823.952l-16.921-0.369c-18.053-20.222-28.083-34.431-28.083-34.431s-10.58 13.682-29.488 33.177l-16.988-0.37c2.248 3.185 4.708 6.543 7.374 10.051-82.143 80.794-280.724 228.256-470.073 3.050-309.415-368.008 509.176-899.061 509.176-899.061s778.319 555.171 497.731 899.061c-191.398 234.579-382.066 82.215-460.477-1.452 2.798-3.371 5.383-6.597 7.75-9.657zM531.157 2.482l54.673-15.723 97.914 340.475-178.644 189.537 109.808 262.989-52.497 21.919-124.034-297.059 181.734-192.816z" />
<glyph unicode="&#xe942;" glyph-name="research" horiz-adv-x="947" d="M624.762 786.004v-161.445c0-32.836 10.133-64.871 29.016-91.734l269.779-383.789c40.531-57.659 26.645-137.258-31.014-177.789-21.49-15.106-47.119-23.213-73.387-23.213h-691.541c-70.479 0-127.614 57.135-127.614 127.614 0 26.169 8.045 51.705 23.045 73.149l267.872 382.934c18.75 26.804 28.807 58.725 28.807 91.436v161.973c-45.679 2.937-81.82 40.917-81.82 87.339 0 48.337 39.185 87.521 87.521 87.521h285.757c48.337 0 87.521-39.185 87.521-87.521 0-43.718-32.054-79.95-73.942-86.474zM370.724 784.107v-169.614c0-36.273-11.008-71.692-31.568-101.575v0l-272.416-395.935c-8.868-12.89-13.589-28.18-13.529-43.826 0.162-42.415 34.678-76.668 77.093-76.506v0l688.311 2.632c15.526 0.059 30.669 4.823 43.433 13.663 34.869 24.15 43.559 71.994 19.41 106.863v0l-282.023 407.209c-14.354 20.726-22.268 45.228-22.749 70.435v0l-3.564 186.655h-202.398zM325.895 908.8c-20.135 0-36.458-16.323-36.458-36.458s16.323-36.458 36.458-36.458v0h285.025c20.135 0 36.458 16.323 36.458 36.458v0c0 20.135-16.323 36.458-36.458 36.458v0h-285.025zM348.55 320h260.227c8.811 0 17.003-4.531 21.685-11.994l112.933-179.998c7.514-11.976 3.897-27.777-8.080-35.291-4.077-2.558-8.793-3.915-13.606-3.915h-493.978c-14.138 0-25.6 11.462-25.6 25.6 0 5.082 1.512 10.048 4.344 14.267l120.819 179.998c4.754 7.083 12.725 11.333 21.256 11.333z" />
<glyph unicode="&#xe943;" glyph-name="star_line" horiz-adv-x="1075" d="M537.597 137.933l280.477-146.524c3.319-1.734 7.116-2.328 10.805-1.691 9.288 1.603 15.518 10.433 13.915 19.721l-53.533 310.151 226.491 219.379c2.713 2.628 4.478 6.082 5.018 9.82 1.347 9.329-5.124 17.983-14.453 19.331l-313.123 45.212-140.312 282.507c-1.656 3.335-4.358 6.037-7.694 7.694-8.442 4.193-18.684 0.748-22.877-7.694l-140.312-282.507-313.123-45.212c-3.738-0.54-7.192-2.305-9.82-5.018-6.558-6.77-6.385-17.575 0.385-24.133l226.491-219.379-53.533-310.151c-0.637-3.69-0.043-7.486 1.691-10.805 4.364-8.354 14.675-11.589 23.029-7.225l280.477 146.524zM733.075 648.137l-19.269 13.95 13.294-1.92 5.975-12.030zM233.179 314.968l7.416-22.743-9.717 9.412 2.301 13.331zM280.828-53.971c-33.417-17.458-74.66-4.52-92.117 28.898-6.935 13.275-9.312 28.462-6.764 43.221l48.931 283.489-207.057 200.556c-27.082 26.231-27.771 69.45-1.54 96.531 10.512 10.852 24.326 17.911 39.28 20.070l286.534 41.373 128.362 258.447c16.771 33.767 57.74 47.545 91.508 30.774 13.341-6.626 24.148-17.433 30.774-30.774l128.362-258.447 286.534-41.373c37.316-5.388 63.198-40.006 57.81-77.322-2.159-14.953-9.218-28.768-20.070-39.28l-207.057-200.556 48.931-283.489c6.413-37.153-18.507-72.471-55.661-78.883-14.759-2.547-29.946-0.171-43.221 6.764l-256.77 134.139-256.769-134.139z" />
<glyph unicode="&#xe944;" glyph-name="star" horiz-adv-x="1078" d="M538.945 91.211l-282.761-147.717c-21.985-11.485-49.118-2.973-60.603 19.012-4.562 8.734-6.126 18.725-4.45 28.435l53.929 312.442-228.183 221.019c-17.817 17.257-18.27 45.691-1.013 63.507 6.916 7.14 16.004 11.784 25.842 13.204l315.609 45.571 141.407 284.712c11.034 22.215 37.987 31.28 60.202 20.246 8.777-4.359 15.887-11.469 20.246-20.246l141.407-284.712 315.609-45.571c24.55-3.545 41.578-26.32 38.033-50.87-1.42-9.838-6.064-18.926-13.204-25.842l-228.183-221.019 53.929-312.442c4.219-24.443-12.176-47.678-36.619-51.897-9.71-1.676-19.701-0.112-28.435 4.45l-282.761 147.717z" />
<glyph unicode="&#xe945;" glyph-name="mail" horiz-adv-x="1463" d="M146.286 960h1170.286c80.791 0 146.286-65.494 146.286-146.286v-731.429c0-80.791-65.494-146.286-146.286-146.286h-1170.286c-80.791 0-146.286 65.494-146.286 146.286v731.429c0 80.791 65.494 146.286 146.286 146.286zM1316.873 886.856c-0.1 0-0.201 0.001-0.302 0.001h-1170.286c-0.156 0-0.312 0-0.467-0.001l585.527-468.648 585.528 468.649zM1382.406 845.622l-425.418-340.499 427.628-449.719c3.29 8.321 5.098 17.39 5.098 26.881v731.429c0 11.439-2.626 22.265-7.308 31.908zM1326.976 9.877l-427.3 449.374-168.331-134.73-173.886 139.176-441.821-447.843c9.322-4.308 19.704-6.711 30.648-6.711h1170.286c3.532 0 7.006 0.251 10.405 0.734zM73.323 77.109l426.724 432.541-419.643 335.876c-4.653-9.618-7.262-20.411-7.262-31.812v-731.429c0-1.74 0.061-3.467 0.18-5.176z" />
</font>
</defs>
</svg>
