<?xml version="1.0" encoding="UTF-8"?>
<svg width="25px" height="20px" viewBox="0 0 25 20" version="1.1" xmlns="http://www.w3.org/2000/svg" xmlns:xlink="http://www.w3.org/1999/xlink">
    <!-- Generator: Sketch 45 (43475) - http://www.bohemiancoding.com/sketch -->
    <title>Group 9</title>
    <desc>Created with Sketch.</desc>
    <defs></defs>
    <g id="Материалы" stroke="none" stroke-width="1" fill="none" fill-rule="evenodd">
        <g id="Страница-статьи.-Авторизованный." transform="translate(-330.000000, -7762.000000)" fill="#4A4A4A">
            <g id="Group-9" transform="translate(330.000000, 7762.000000)">
                <path d="M18.9937855,10.4144071 C17.5511292,10.2506884 16.3581812,9.66403875 15.4149059,8.65444041 C14.4716306,7.64484208 14,6.49882872 14,5.21636597 C14,3.82475745 14.4577591,2.65145806 15.373291,1.6964326 C16.2888229,0.741407147 17.4401564,0.263901582 18.827326,0.263901582 C20.3809559,0.263901582 21.7264902,0.884658816 22.8639693,2.12619191 C24.0014483,3.367725 24.5701793,4.86163527 24.5701793,6.60796753 C24.5701793,11.9561101 21.7977665,15.8093072 14.5577243,18.86848 L14,17.2369212 C17.3846938,15.5997347 18.9937855,12.6246089 18.9937855,10.4144071 Z" id=",-copy-4" transform="translate(19.285090, 9.566191) rotate(-180.000000) translate(-19.285090, -9.566191) "></path>
                <g id="Group-53">
                    <path d="M5.25661633,10.6847426 C3.73803068,10.5124072 2.48229601,9.89488123 1.48937463,8.83214614 C0.496453244,7.76941105 3.51718654e-13,6.5630812 3.51718654e-13,5.2131204 C3.51718654e-13,3.74826933 0.481851678,2.51321734 1.44556949,1.50792739 C2.4092873,0.502637437 3.62121728,0 5.08139578,0 C6.71679571,0 8.13314761,0.653428668 9.33049398,1.96030561 C10.5278404,3.26718255 11.1265046,4.83971967 11.1265046,6.67796415 C11.1265046,12.3075879 8.20817528,16.3635849 0.587078162,19.5837668 L3.53588504e-13,17.8663364 C3.56283555,16.1429822 5.25661633,13.0112708 5.25661633,10.6847426 Z" id=",-copy-4" transform="translate(5.563252, 9.791883) rotate(-180.000000) translate(-5.563252, -9.791883) "></path>
                </g>
            </g>
        </g>
    </g>
</svg>