<?xml version="1.0" encoding="UTF-8"?>
<svg width="19px" height="25px" viewBox="0 0 19 25" version="1.1" xmlns="http://www.w3.org/2000/svg" xmlns:xlink="http://www.w3.org/1999/xlink">
    <!-- Generator: Sketch 45.1 (43504) - http://www.bohemiancoding.com/sketch -->
    <title>Group 17 Copy 2</title>
    <desc>Created with Sketch.</desc>
    <defs></defs>
    <g id="Материалы" stroke="none" stroke-width="1" fill="none" fill-rule="evenodd" opacity="0.5">
        <g id="Страница-статьи.-Авторизованный." transform="translate(-1114.000000, -13574.000000)" fill-rule="nonzero" fill="#979797">
            <g id="Group-17-Copy-2" transform="translate(1124.000000, 13586.500000) rotate(-120.000000) translate(-1124.000000, -13586.500000) translate(1110.000000, 13581.000000)">
                <path d="M8.06032647,2.06821999 L8.49136545,2.06350138 L7.45367898,0.216637466 L22.3514396,0.0535508473 C25.0531082,0.023975531 27.2432432,2.14434695 27.2432432,4.80277411 L27.2432432,4.85938805 C27.2432432,7.51188695 25.0588606,9.66216216 22.3552622,9.66216216 L12.7607799,9.66216216 L12.7607799,7.80405405 L22.3552622,7.80405405 C24.0121765,7.80405405 25.3513514,6.48747171 25.3513514,4.85938805 L25.3513514,4.80277411 C25.3513514,3.18123038 24.0237824,1.89346714 22.3725255,1.91154354 L8.06032647,2.06821999 Z M8.06032647,2.06821999 L8.49136545,2.06350138 L7.45367898,0.216637466 L22.3514396,0.0535508473 C25.0531082,0.023975531 27.2432432,2.14434695 27.2432432,4.80277411 L27.2432432,4.85938805 C27.2432432,7.51188695 25.0588606,9.66216216 22.3552622,9.66216216 L12.7607799,9.66216216 L12.7607799,7.80405405 L22.3552622,7.80405405 C24.0121765,7.80405405 25.3513514,6.48747171 25.3513514,4.85938805 L25.3513514,4.80277411 C25.3513514,3.18123038 24.0237824,1.89346714 22.3725255,1.91154354 L8.06032647,2.06821999 Z" id="Rectangle-25"></path>
                <path d="M0.728220958,5.21148507 L0.730158896,5.56421725 C0.729835736,5.50539749 0.730511584,5.44678494 0.732170723,5.38839529 C0.72986802,5.32964792 0.728546138,5.2706725 0.728220958,5.21148507 Z M6.0191131,8.64071405 L5.98481163,10.4985167 L7.01783133,8.94155701 C6.73018961,8.75708402 6.38793545,8.64728276 6.0191131,8.64071405 L1.96748844,8.56855487 C2.93275743,9.72155042 4.37589559,10.469862 5.98481163,10.4985167 L1.13644253,10.4121676 L5.98481163,10.4985167 L6.0191131,8.64071405 L1.96748844,8.56855487 C1.2720592,7.73787782 0.824667945,6.69714959 0.742021252,5.56415439 L2.62202325,5.55419111 L2.62008531,5.20145892 L0.740238036,5.21142138 C0.910314973,2.50338714 3.19492573,0.317419839 5.98774417,0.258190737 L12.8760411,0.11210618 L11.6253278,1.99717211 L6.02858672,2.11586581 C4.20546206,2.15452999 2.70958664,3.60583093 2.6256842,5.37880452 C2.72858966,7.16110109 4.22379381,8.60873953 6.0191131,8.64071405 Z M2.62008531,5.20145892 L0.740238036,5.21142138 C0.736548202,5.27017242 0.73385363,5.32916918 0.732170723,5.38839529 C0.734476286,5.44721563 0.737765109,5.50580735 0.742021252,5.56415439 L2.62202325,5.55419111 C2.62170029,5.49540876 2.62293335,5.43693375 2.6256842,5.37880452 C2.6222913,5.32004021 2.62041195,5.26091209 2.62008531,5.20145892 Z M0.728220958,5.21148507 L0.730158896,5.56421725 C0.729835736,5.50539749 0.730511584,5.44678494 0.732170723,5.38839529 C0.72986802,5.32964792 0.728546138,5.2706725 0.728220958,5.21148507 Z M6.0191131,8.64071405 C6.38793545,8.64728276 6.73018961,8.75708402 7.01783133,8.94155701 L5.98481163,10.4985167 L6.0191131,8.64071405 Z M6.0191131,8.64071405 L1.96748844,8.56855487 C2.93275743,9.72155042 4.37589559,10.469862 5.98481163,10.4985167 L1.13644253,10.4121676 L5.98481163,10.4985167 L6.0191131,8.64071405 L1.96748844,8.56855487 C1.2720592,7.73787782 2.62008531,5.20145892 2.62008531,5.20145892 L0.740238036,5.21142138 C0.910314973,2.50338714 3.19492573,0.317419839 5.98774417,0.258190737 L12.8760411,0.11210618 L11.6253278,1.99717211 L6.02858672,2.11586581 C4.20546206,2.15452999 2.70958664,3.60583093 2.6256842,5.37880452 C2.72858966,7.16110109 4.22379381,8.60873953 6.0191131,8.64071405 Z M2.62008531,5.20145892 L0.740238036,5.21142138 C0.736548202,5.27017242 0.73385363,5.32916918 0.732170723,5.38839529 C0.734476286,5.44721563 0.737765109,5.50580735 0.742021252,5.56415439 L2.62202325,5.55419111 C2.62170029,5.49540876 2.62293335,5.43693375 2.6256842,5.37880452 C2.6222913,5.32004021 2.62041195,5.26091209 2.62008531,5.20145892 Z" id="Rectangle-25"></path>
                <path d="M21.5334266,7.80405405 L21.2257642,7.80405405 L21.9459459,9.66216216 L10.6874615,9.66216216 C8.96439167,9.66216216 7.56356291,8.28483349 7.55864531,6.59351494 C7.55371768,4.89874788 8.94647136,3.52486772 10.6673813,3.52486772 L19.5672,3.52486772 L20.2404466,5.26188067 C20.0312804,5.34012628 19.8043352,5.38297583 19.5672,5.38297583 L10.6673813,5.38297583 C9.99396478,5.38297583 9.44859014,5.92120693 9.45052949,6.58820889 C9.45247553,7.25751484 10.0093001,7.80405405 10.6874615,7.80405405 L21.5334266,7.80405405 Z M21.5334266,7.80405405 L21.2257642,7.80405405 L21.9459459,9.66216216 L10.6874615,9.66216216 C8.96439167,9.66216216 7.56356291,8.28483349 7.55864531,6.59351494 C7.55371768,4.89874788 8.94647136,3.52486772 10.6673813,3.52486772 L19.5672,3.52486772 L20.2404466,5.26188067 C20.0312804,5.34012628 19.8043352,5.38297583 19.5672,5.38297583 L10.6673813,5.38297583 C9.99396478,5.38297583 9.44859014,5.92120693 9.45052949,6.58820889 C9.45247553,7.25751484 10.0093001,7.80405405 10.6874615,7.80405405 L21.5334266,7.80405405 Z" id="Rectangle-25-Copy"></path>
            </g>
        </g>
    </g>
</svg>