<?xml version="1.0" encoding="UTF-8"?>
<svg width="52px" height="38px" viewBox="0 0 52 38" version="1.1" xmlns="http://www.w3.org/2000/svg" xmlns:xlink="http://www.w3.org/1999/xlink">
    <!-- Generator: Sketch 45.1 (43504) - http://www.bohemiancoding.com/sketch -->
    <title>Group 23</title>
    <desc>Created with Sketch.</desc>
    <defs></defs>
    <g id="Материалы" stroke="none" stroke-width="1" fill="none" fill-rule="evenodd">
        <g id="Форма-отправки-кейса+-поля-2" transform="translate(-526.000000, -1476.000000)">
            <g id="Group-23" transform="translate(528.000000, 1478.000000)">
                <path d="M39.4609164,13.9389401 C39.4609164,10.1251212 36.3329436,7.03341014 32.4743935,7.03341014 C31.2304908,7.03341014 30.0625142,7.35471955 29.050784,7.91794897 C28.5323191,3.4610048 24.7020347,0 20.0539084,0 C15.0520842,0 10.9973046,4.00777361 10.9973046,8.9516129 C10.9973046,8.98983259 10.9975469,9.02799633 10.9980301,9.06610271 C10.5130276,8.99074006 10.0158537,8.9516129 9.50943396,8.9516129 C4.25751861,8.9516129 0,13.1597752 0,18.3508065 C0,22.7176297 3.01287065,26.388917 7.09607545,27.4446512 C7.65663577,27.6423919 8.25960363,27.75 8.88763868,27.75 L40.0180217,27.75 C40.1332565,27.75 40.2476582,27.7463727 40.3611185,27.7392259 C40.4913977,27.7463769 40.6226293,27.75 40.754717,27.75 C44.613267,27.75 47.7412399,24.6582889 47.7412399,20.84447 C47.7412399,17.0306512 44.613267,13.9389401 40.754717,13.9389401 C40.6226628,13.9389401 40.4914644,13.9425613 40.3612178,13.9497088 C40.2477352,13.9425657 40.1333007,13.9389401 40.0180217,13.9389401 L39.4609164,13.9389401 Z" id="Combined-Shape" stroke="#000000" stroke-width="2.7" stroke-linecap="round" stroke-linejoin="round"></path>
                <g id="Group-22" transform="translate(15.000000, 13.000000)" fill="#000000">
                    <rect id="Rectangle-6" x="6.5" y="3" width="2.71698113" height="19.6935484" rx="1.35849057"></rect>
                    <path d="M9.31706367,1.39459109 C8.78658827,0.870265365 7.93017739,0.86664813 7.39595511,1.39467731 L7.39595511,1.39467731 C6.86543154,1.91905065 6.87063366,2.77436963 7.39586788,3.29351495 L13.5708524,9.3969145 C14.1013278,9.92124023 14.9577387,9.92485746 15.491961,9.39682828 L15.491961,9.39682828 C16.0224846,8.87245494 16.0172824,8.01713596 15.4920482,7.49799064" id="Rectangle-6-Copy-2"></path>
                    <rect id="Rectangle-6-Copy-2" transform="translate(4.961673, 4.961673) rotate(-315.000000) translate(-4.961673, -4.961673) " x="3.60318281" y="-0.69670184" width="2.71698113" height="11.3167504" rx="1.35849057"></rect>
                </g>
            </g>
        </g>
    </g>
</svg>